<mxfile host="app.diagrams.net" modified="2024-01-11T08:27:33.917Z" agent="Mozilla/5.0 (Windows NT 10.0; Win64; x64) AppleWebKit/537.36 (KHTML, like Gecko) Chrome/120.0.0.0 Safari/537.36" etag="z7HQAD1tFS9q1XwEtV4I" version="22.1.17" type="github">
  <diagram name="第 1 页" id="LNer3tCgR1WIjX-fkc0F">
    <mxGraphModel dx="1793" dy="1041" grid="1" gridSize="10" guides="1" tooltips="1" connect="1" arrows="1" fold="1" page="1" pageScale="1" pageWidth="827" pageHeight="1169" math="0" shadow="0">
      <root>
        <mxCell id="0" />
        <mxCell id="1" parent="0" />
        <mxCell id="35Mcef35AUe8jmvGCrlI-10" value="" style="edgeStyle=orthogonalEdgeStyle;rounded=0;sketch=1;hachureGap=4;jiggle=2;curveFitting=1;orthogonalLoop=1;jettySize=auto;html=1;fontFamily=Architects Daughter;fontSource=https%3A%2F%2Ffonts.googleapis.com%2Fcss%3Ffamily%3DArchitects%2BDaughter;fontSize=16;fillColor=#dae8fc;strokeColor=#6c8ebf;" edge="1" parent="1" source="35Mcef35AUe8jmvGCrlI-1" target="35Mcef35AUe8jmvGCrlI-9">
          <mxGeometry relative="1" as="geometry" />
        </mxCell>
        <mxCell id="35Mcef35AUe8jmvGCrlI-20" style="edgeStyle=orthogonalEdgeStyle;rounded=0;sketch=1;hachureGap=4;jiggle=2;curveFitting=1;orthogonalLoop=1;jettySize=auto;html=1;fontFamily=Architects Daughter;fontSource=https%3A%2F%2Ffonts.googleapis.com%2Fcss%3Ffamily%3DArchitects%2BDaughter;fontSize=16;fillColor=#dae8fc;strokeColor=#6c8ebf;" edge="1" parent="1" source="35Mcef35AUe8jmvGCrlI-1" target="35Mcef35AUe8jmvGCrlI-14">
          <mxGeometry relative="1" as="geometry" />
        </mxCell>
        <mxCell id="35Mcef35AUe8jmvGCrlI-22" style="edgeStyle=orthogonalEdgeStyle;rounded=0;sketch=1;hachureGap=4;jiggle=2;curveFitting=1;orthogonalLoop=1;jettySize=auto;html=1;entryX=0.5;entryY=0;entryDx=0;entryDy=0;fontFamily=Architects Daughter;fontSource=https%3A%2F%2Ffonts.googleapis.com%2Fcss%3Ffamily%3DArchitects%2BDaughter;fontSize=16;fillColor=#dae8fc;strokeColor=#6c8ebf;" edge="1" parent="1" source="35Mcef35AUe8jmvGCrlI-1" target="35Mcef35AUe8jmvGCrlI-16">
          <mxGeometry relative="1" as="geometry" />
        </mxCell>
        <mxCell id="35Mcef35AUe8jmvGCrlI-23" style="edgeStyle=orthogonalEdgeStyle;rounded=0;sketch=1;hachureGap=4;jiggle=2;curveFitting=1;orthogonalLoop=1;jettySize=auto;html=1;entryX=0.5;entryY=0;entryDx=0;entryDy=0;fontFamily=Architects Daughter;fontSource=https%3A%2F%2Ffonts.googleapis.com%2Fcss%3Ffamily%3DArchitects%2BDaughter;fontSize=16;fillColor=#dae8fc;strokeColor=#6c8ebf;" edge="1" parent="1" source="35Mcef35AUe8jmvGCrlI-1" target="35Mcef35AUe8jmvGCrlI-11">
          <mxGeometry relative="1" as="geometry" />
        </mxCell>
        <mxCell id="35Mcef35AUe8jmvGCrlI-1" value="reactor&lt;br&gt;&lt;font style=&quot;font-size: 12px;&quot;&gt;基于事件驱动&lt;/font&gt;" style="rounded=0;whiteSpace=wrap;html=1;sketch=1;hachureGap=4;jiggle=2;curveFitting=1;fontFamily=Architects Daughter;fontSource=https%3A%2F%2Ffonts.googleapis.com%2Fcss%3Ffamily%3DArchitects%2BDaughter;fontSize=20;fillColor=#dae8fc;strokeColor=#6c8ebf;" vertex="1" parent="1">
          <mxGeometry x="620.17" y="170" width="290" height="60" as="geometry" />
        </mxCell>
        <mxCell id="35Mcef35AUe8jmvGCrlI-3" value="&lt;div style=&quot;text-align: left;&quot;&gt;&lt;span style=&quot;font-size: 14px; background-color: initial;&quot;&gt;其实就是NIO的网络IO模型&lt;/span&gt;&lt;/div&gt;&lt;font style=&quot;font-size: 14px;&quot;&gt;&lt;div style=&quot;text-align: left;&quot;&gt;&lt;span style=&quot;background-color: initial;&quot;&gt;如单线程的redis网络模型，多线程的Kafka网络模型&lt;/span&gt;&lt;/div&gt;&lt;div style=&quot;text-align: left;&quot;&gt;&lt;span style=&quot;background-color: initial;&quot;&gt;Netty均可以实现&lt;/span&gt;&lt;/div&gt;&lt;/font&gt;" style="rounded=0;whiteSpace=wrap;html=1;sketch=1;hachureGap=4;jiggle=2;curveFitting=1;fontFamily=Architects Daughter;fontSource=https%3A%2F%2Ffonts.googleapis.com%2Fcss%3Ffamily%3DArchitects%2BDaughter;fontSize=20;fillColor=#ffe6cc;strokeColor=#d79b00;" vertex="1" parent="1">
          <mxGeometry x="370" y="605" width="370" height="130" as="geometry" />
        </mxCell>
        <mxCell id="35Mcef35AUe8jmvGCrlI-4" value="" style="shape=image;verticalLabelPosition=bottom;labelBackgroundColor=default;verticalAlign=top;aspect=fixed;imageAspect=0;image=data:image/png,iVBORw0KGgoAAAANSUhEUgAAARMAAAB0CAYAAACmL9buAAATXElEQVR4Ae2d7XHjvA6Fbxmp8d1KMltF0oLTggtIRb4DkvgkIVkyrVXi82PHsUSRIHjwALLX1P/e3t5u+AcfQAPQwKMa+N+jHeB6iBAagAZIA4AJKjNUptDAFA0AJhDSFCGhOkF1ApgAJoAJNDBFA4AJhDRFSKhMUJkAJoAJYAINTNEAYAIhTRESKhNUJoAJYAKYQANTNACYQEhThITKBJUJYAKYACbQwBQNACYQ0hQhoTJBZQKYACaACTQwRQOACYQ0RUioTFCZACaACWACDUzRAGACIU0REioTVCaACWACmEADUzQAmEBIU4SEygSVCWACmAAm0MAUDZwXJn8vt++v92SSf24f1+/b5S+yga8IyC/X28d/iV/Ip9eP258keP58Xm/f35fbuztvfP3fx+36/X37pn/Dtalt6fz180+ydoltb++3y3dve7HJjPX+tafvOOZ4LO/LeA3er/nnMZgUcUXxzXI6LfhYOEVgSVDUgGiCZ+G31+0CnzUX6qcFWmL32kLde34MBBq/+jMHcHa+2p37TgESIUKBX8AT1qEei+AYB/g9MFla8zIW+dxpdTzWvT5Gu3Fc7IRJFV4VxbNg8nZ7o0was9XomMmkq8IyWe44UZiAezJMBFpunm18d8wLQoOW2tpAr9dePz8K3B0c3Fy4nVYkeRUxCmZ7zOrrfiC58Rw83m5v7r0dy/vhOE38vnG3w6QEcwVIDdzJMCmLviSgeM4K/+2mMLF2WXHa40ctaAtmytAuAOeNv1wFRJ+F2xQbaPT310e5jXTg+F67rZwJE/WLQq4ec8AwSYQg4M7ZOVE79x4weQY0t8PELODzYNIHvBOK2NCLYgyTKrRhJVXgaIMtjm1B1NolQOgCmtoVEdv+x31013afXagddMvB7fn2Y+gfF0BZgFYI8O3P+5eHcxek4vvWXzI/a2OEUn3fxhlerzasw0T9Mh6n+vvySZ/38Nr2uinB1bTAPn1GwP3mPk8Kk0HwDe+7qZ0KjxZqCBMrWFPqa9s4HovOQii0Mf3w5xGdmO+CyXIwcJDbMa5X+qC02sPCZ7jw8dVXtt/6JvmMqvTN7SNM+H3rh+2htRgCrrQfBHO8fe0gH/wf1p1v78RfxR5dx7sqE8Bk44fmmqBovU8KEyOCJtaxMHtR5oAItxgSRBZGejvCQREztfavNtpAFjFTMH3yNyfab7zN0WutHQYwUgWZY10gJYEbA6r5ssyhg8Of28fn+NsznfNCQD8YiNUPxgelP/Wxz+j9utfP10z7ZO61n8H1DEW87gbK68BEgrLSNA+QFjBdsMWynoVvgjy7hr/J6T4zya9V++4bZwjbJKBGMPHQNPAzFaEFpQ9ureCoaiogFlhHAJn3sibvtwtdZ6utTZVJ9SMngGJbMnfAxFcTcR0feX9SmBjBGTGPS3cOtgiJlqWsqE2wa7AmY3HbVNQ8rgLBidllOBOcEkBk78K1Mu5942iFk8wn+pHn524N+VqT4Wkei4HJ56+365WqvwqFDjw0Hzd3FTWtRf22qM6V5nL5om/ygh3iU/Ib+6WBzMwnCwjno8SW7Foc1/XKfHFSmPQiGmbewX90UkhoH3pMv5HQY9quc5IEtGkjcGIxKxDG/5GLFmEdJvFata8fZwStoX8SCJS+JfjYNh5nJBofvBWC2r72V78BKraR36T/1l8KE+qb/BvGEN8z4OKrjt+tG0MnmX/anq/D665bnfPBJFnIYbAM2moQGgCYCkCynUAhfE1aPjis14760uymYtZjCisSrH5morcBMn6zXa/V/mzFotlcoTWCyTBApgVTBc71812+MtbKgyHAbfj/mTCkIgT0fenjv4/bpfxvWe5nBLPal47Zt1E/av/jSradR2WyCxhDnTUtPwUmHIRLiz8yarMgbOneMiGPHYO2fkBXhcTBmI/XQDTKjnJvb4LfgsnaZASrdkUxKyR68ZsxDBDZ/uLDbGxrR/r3uH+yI66d2C9zagH+xTCIMAkBn1Ym3M7AZOT34Rys/dyPed0K09J+pc9BAhtp+RWPnQomSwtAge+CKFlUEX13v+0zJQeLtteMZsdxwKFAkuCNovP9FzC4Uj+cl6Ak8YdzFDjuPLVR6Fj7lny2+lkH+TCdjx9TQWdBa31Q55DatgUmYW3LGl0vt8vVVpsGGqG9+GQjTOo4/A3cHf1n477o8YdgIot2gPPuhcmRNp1+rI3BJPORysDCogaXg+sAlhUmAzgOKwtbAZnKhPXEoJNxGlDlvYWhJgMF39oxPz9o7DGAAiYs3N/4uhcmu3yxUpms9qkwEWB11VkT+wLsBIir48XA0fH39xH7fK33PwYmWODXEibW++etN2CyOYP9vEVGYGLNjtAAYAKYTP+K8AjhYozzARIwAUwAE2hgigYAEwhpipBQKZyvUjh6TQATwAQwgQamaAAwgZCmCOnoLIjxzlcJASaACWACDUzRAGACIU0REiqF81UKR68JYAKYACbQwBQNACYQ0hQhHZ0FMd75KiHABDABTKCBKRoATCCkKUJCpXC+SuHoNTkvTOiXofan5i7o6y9UeU+So532M8bjbQDu3wOk7u0S2xtf85YAtJ3AcG14zPv2nvF+HP9qt9hkxpqzTcB4LG8P4LDVHztgooKRfSPMYm81IG9PCz4W5dImNjUgxvtYpBv3OFA9S0TNb9nP6qfawGsUwbA0t+rvHtC1r9x3PFb1uW0nWwkM9zLxe4nEfWVZF/fAZGnNi0bJ5247BsCE/TvzdTNM4uLKDmDPCJKyb0UQ3eiYCcRVYT0FfEtBSudMwD3DT2b+bqxhEDfQBjt0XclW63OGCZ41PDPwfmNfm2EydMJKgA+vcQFggtGW0kvBIOes8JMn+pktD7u9YTM7ph4/CiZ5NVfXgO0IFYvN2vQ3njWMz5F26P+kMAliTx812ZerWpn4PrTk9sftRtP1ti2cdyAaZ3WGpY5h2mVwDJVBd223h20FBdlItxLcnm8reN50m0J/83G2jc/H41zJ8O2NfxhXhTyN1V/XEkAyP2rPNsrtsCQA8k9LAsPrNUEUu0012duifhmPU9cCzxo2CXsHKFhHS69TYFKFGoNwp/FDcbXgdGLkYyo8migHjatAbJ9GmNqW++JXnUsaEKYfudWL9hEw7Nj2vMBkORg4yO0Y3bOGS2WoNnPbAoBybrRB9RgGI2gUH7j5Dta2zdNe3wc+X9cngQp1s5Zst/WZ+9u0LcFRqy7xV7HH+MS9H4xPfbQx7RyWggfneD3r6+Mw4UVfE9u9NHSLrsaOhdmLIgdECKgmfsmQRpCc/UksMVNr/ypUCxwRs3tuDt9eBBtaxVUzqg0OA5ghdGxb9ZEVt9gp14/b6TV41rD6Ys1XOD/y1UMw2S7YOxbhWTAJQSW2u2zHlUn21afdDZ0D2gR+CtQMJvm1at+GcRjs7lswHduCLorBQ1OvsbcOy9dX3+FZw3do/N7E+sPa7YRJHgRRpJvfS8VgAjsL+HKcg60uogZhqxxsfybYtV0yDrc1AWoDSysa9UVeHpvgdFBbuFbG5fllbU3fbDOLUPoYz5Ht7X2hVVdZvwTwsrblPJ41LP5g/7/Y6w6YsKhZ5JNJnAh3+22OBoQNFs6uekzbdWKQYDRtBE48f/bHQjWTfjWcX6v29eMwBDp7RbytXwcuXad6W8ZzYhjxONpO+6f+7Hn/vtjavgEqtpHfRmAb2kN9kS2+T/78wgPcQtHaM7KZq0ieZ9JGfIbzut77fLEZJl6I+wbdY/QYJv34GoRWRCRUFmI7LlDoIfD+VduM+qrzp75UzHrMPlTqHzxrWOZE9hMk1Mbq8+aHYVD3vtR1qsDBs4aXfIRzG2FSxbiWGTkIuQpQUS473AZlnpEYCuG1ZUIe232bQ9lHqgz9mjMfrwHHXCP2nO1ZwyWzcnXR7OZsW+yvx3iu+ZpY4Hoo0vqJXwVEdcwLnjWM/5PS9LYLJhJYku1bYIeAzoW7DJURfCgY1iDmRN/9Pw0OuGor2yZBYuZix+EgLHOmQJLsH7O+77+0d6V+OC9BSb4I58gWd57aaLBb+0a+ssfEfmeL8X86Hz+mrrkFrfVBnUNqG4Gtm5OxI97mMBAZZHjW8OmhtREmdvGP/ftemNhAes2/PZgYmpt8IRWZhUVdb4ETAc8BysLE26AgCtXkt62ACJZhPAadjNOAKu/5c5G+36Ux9ZwfDxp7LKYBE5MBNwXcma6T4Keg8gFy3JwsTPaIUmEiwMoqGZnvzLnq+Mf5bI+fznvNj4EJFvi8IsLaYG1IA4DJmSoM2HL6zwUAzhycgAkCGAEMDUzRAGACIU0REjJ2nrFfxTeACWACmEADUzQAmEBIU4T0KtkX88wrMMAEMAFMoIEpGgBMIKQpQkLGzjP2q/gGMAFMABNoYIoGABMIaYqQXiX7Yp55BQaYACaACTQwRQOACYQ0RUjI2HnGfhXfACaACWACDUzRwM+ASfkpetj4Z0UA2c/Jy/4l9ifsK/28Slbp58nbCNzv97o3TGxf+ylbIfCWAt32BZzVecz79q7xNo9/9RvXO9OF74vtyV7HY23rI+v75x7fBZO4oVC6Ic7EQC0/S98AgUw0UVxRAHFuuvfFHoHPFEYLtOxn+RN9rZs1RTAszYcCzO5Pwm2r3blGFCDka9uurLnZtMquRb/VwjjA43qPdLG05mVM8rlLaOOxopZe7f12mPy9uAXn7RCtCJ7jxG0LOBIN2RXFFW1dFdYGoMW+9783Afd0mJix0kDud4JTv9L1dp+R2t/1E88q3r/+DOZzv26HSZcBm/imBFnNbj4D3bOLVp9BH4eJ7dPaZY8ftbgmwJ8KkzrPPDGwHcEHNmvT33hW8ZTPIH4afE4Gkzw4S+bbEEhzYUJP9mOohUCSXb+S82bvVoFkMg8do/VF7eznDLZSCH1013Z74CoQCRbcnsHBFRl9tkF/83EWNJ+Px/mWiLeH9A/zqutJY/XXtbVO5kft2Ubxm50/7yg3vF4ro2K3SXS9LeqX8Th1Le56VnGXaHM9s19/0+vDMKkiCwH2BKeWcUIA5QuRV0tFoAv9cNC43e2tYI0wtS2DhF/VH2lAmH7sZtFO0HfBZDkYOMjtGHhWMa2TAqfqqGpG/FXWXNfxzb0nn8frXwsco9jbBRMXIC4onufQXTChTBbsq7bnQsgBET4nEMDYvvg2QDNxzNTavwrV+lPEjGcVb7pV6Na1VIzqYy/+AQxiewePqOvB9U9IoN7maMP53u+CiZtkK/PTMnaSk7fBpC3234/b1X1DUI9fvq43G7R2PhrsXGW011DNpO24FA8QkzE6CJFNbYzsGvsoDGdHfq3ax7DL24pt5pZN11MBmfmMrvfQ1GtspbV8ffUBnlV8PkiIPlZi+XGY8Dck3T36TqcYQVshLv3didRmlRa8JTj4OI2RBK4GYctqEvy+ytF2AToRDOl8+iDXAI6+M8GZwKS7VsZdG8f0HX0ifYznyGP2vggVAfs9E2M5j2cV3xu0Z203BSb162EWbQyEOe+LYF0gLfRLQWDbtvcf9CFqCRjK0kHwTegaGHpej+n/o9Bj2q5bZAlG00bgxP66o2KYXJkwBDp7JdibTdaHco4/jOY5MYx4PqN1of7sef+++BLPKt50W5ev3cj/xxybApMaWCyu5xhexkjEHR1L989dwLTs9/FftW/YRqosysR2Pibg+bhAgQGl88azitUXdW0qcPCs4uiX3/V+I0xIFDbI9Bm+Nng5a3e3Hya7RQCsvb8bJgEaXsx/lP6lXZhLChOdJ91u8VztB6f+Nqz1K5WJuU3As4pvf4oOKmB+y7OKRQt3Jrw1vf/E8xthQiS1WZqCxJavlbT/EiZlUcO9fwai0XG23VcmNC8u5ysYGJTaXoHBsCFBiMjosxQSmlQ00W++/wInN49w3ok2nOOxHLx13ax9a6IV+50tJqOm8xlphXxkQWt9UOeQ2hZvXd3ceCzbn9pY1/lyu8RE2PWh1xS/JAmn85mxjfyVzmFtvB9+fgdMgsMnOkCEyx9ibnklsZdKwFcbNdj9MRVDC0IXmM+bn4575jE8mBiam2yXiqwPbrfGDlAWJt4GX/UptOm42uc/hyn2MuhknAZUeT/pWcWASan4TwWTTYIdQIyEquLiW5MMJBzQTbhWYIO+H7Xt1NdL8FOg9gA4xnYLE16bLa8KEwFWliRkvrPmauCXjfkCmvpVMDlG9FsEjrZYk9fRAGDyAhkDAf06Af0v1xowAUz0Gy74Ar54QAOAyQPO+5dZAGOj2jibBgATwATZGBqYogHABEKaIqSzZUnYc3zlBpgAJoAJNDBFA4AJhDRFSKgEjq8EzuZzwAQwAUyggSkaAEwgpClCOluWhD3HV0qACWACmEADUzQAmEBIU4SESuD4SuBsPgdMABPABBqYogHABEKaIqSzZUnYc3ylBJgAJoAJNDBFA4AJhDRFSKgEjq8EzuZzwAQwAUyggSkaAEwgpClCOluWhD3HV0qACWACmEADUzQAmEBIU4SESuD4SuBsPgdMABPABBqYogHABEKaIqSzZUnYc3ylBJgAJoAJNDBFA4AJhDRFSKgEjq8EzuZzwAQwAUyggSkaAEwgpClCOluWhD3HV0r/B6jmZqYBoPgQAAAAAElFTkSuQmCC;" vertex="1" parent="1">
          <mxGeometry x="190" y="455" width="189.66" height="80" as="geometry" />
        </mxCell>
        <mxCell id="35Mcef35AUe8jmvGCrlI-9" value="Handle&lt;br&gt;（事件）&lt;br&gt;&lt;font color=&quot;#9933ff&quot;&gt;Channel&lt;/font&gt;" style="whiteSpace=wrap;html=1;fontSize=20;fontFamily=Architects Daughter;rounded=0;sketch=1;hachureGap=4;jiggle=2;curveFitting=1;fontSource=https%3A%2F%2Ffonts.googleapis.com%2Fcss%3Ffamily%3DArchitects%2BDaughter;fillColor=#dae8fc;strokeColor=#6c8ebf;" vertex="1" parent="1">
          <mxGeometry x="214" y="315" width="176" height="70" as="geometry" />
        </mxCell>
        <mxCell id="35Mcef35AUe8jmvGCrlI-11" value="EventHandler&lt;br&gt;(事件处理器)&lt;br&gt;&lt;font color=&quot;#9933ff&quot;&gt;处理Channel&lt;/font&gt;" style="whiteSpace=wrap;html=1;fontSize=20;fontFamily=Architects Daughter;rounded=0;sketch=1;hachureGap=4;jiggle=2;curveFitting=1;fontSource=https%3A%2F%2Ffonts.googleapis.com%2Fcss%3Ffamily%3DArchitects%2BDaughter;fillColor=#dae8fc;strokeColor=#6c8ebf;" vertex="1" parent="1">
          <mxGeometry x="419.65999999999997" y="315" width="176" height="70" as="geometry" />
        </mxCell>
        <mxCell id="35Mcef35AUe8jmvGCrlI-13" style="edgeStyle=orthogonalEdgeStyle;rounded=0;sketch=1;hachureGap=4;jiggle=2;curveFitting=1;orthogonalLoop=1;jettySize=auto;html=1;fontFamily=Architects Daughter;fontSource=https%3A%2F%2Ffonts.googleapis.com%2Fcss%3Ffamily%3DArchitects%2BDaughter;fontSize=16;fillColor=#dae8fc;strokeColor=#6c8ebf;" edge="1" parent="1" source="35Mcef35AUe8jmvGCrlI-12" target="35Mcef35AUe8jmvGCrlI-11">
          <mxGeometry relative="1" as="geometry" />
        </mxCell>
        <mxCell id="35Mcef35AUe8jmvGCrlI-12" value="Concrete Event Handler&lt;br&gt;（具体事件处理器）" style="whiteSpace=wrap;html=1;fontSize=20;fontFamily=Architects Daughter;rounded=0;sketch=1;hachureGap=4;jiggle=2;curveFitting=1;fontSource=https%3A%2F%2Ffonts.googleapis.com%2Fcss%3Ffamily%3DArchitects%2BDaughter;fillColor=#dae8fc;strokeColor=#6c8ebf;" vertex="1" parent="1">
          <mxGeometry x="392.49" y="460" width="230.34" height="70" as="geometry" />
        </mxCell>
        <mxCell id="35Mcef35AUe8jmvGCrlI-26" style="rounded=0;sketch=1;hachureGap=4;jiggle=2;curveFitting=1;orthogonalLoop=1;jettySize=auto;html=1;fontFamily=Architects Daughter;fontSource=https%3A%2F%2Ffonts.googleapis.com%2Fcss%3Ffamily%3DArchitects%2BDaughter;fontSize=16;edgeStyle=elbowEdgeStyle;dashed=1;dashPattern=8 8;" edge="1" parent="1" source="35Mcef35AUe8jmvGCrlI-14" target="35Mcef35AUe8jmvGCrlI-16">
          <mxGeometry relative="1" as="geometry">
            <Array as="points">
              <mxPoint x="900" y="460" />
            </Array>
          </mxGeometry>
        </mxCell>
        <mxCell id="35Mcef35AUe8jmvGCrlI-14" value="Synchronous Event Demultiplexer&lt;br&gt;（事件多路分解器）&lt;br&gt;&lt;font color=&quot;#9933ff&quot;&gt;Selector&lt;/font&gt;" style="whiteSpace=wrap;html=1;fontSize=20;fontFamily=Architects Daughter;rounded=0;sketch=1;hachureGap=4;jiggle=2;curveFitting=1;fontSource=https%3A%2F%2Ffonts.googleapis.com%2Fcss%3Ffamily%3DArchitects%2BDaughter;fillColor=#dae8fc;strokeColor=#6c8ebf;" vertex="1" parent="1">
          <mxGeometry x="650" y="315" width="230.34" height="115" as="geometry" />
        </mxCell>
        <mxCell id="35Mcef35AUe8jmvGCrlI-16" value="Initiation Dispatcher&lt;br&gt;（事件分发器）" style="whiteSpace=wrap;html=1;fontSize=20;fontFamily=Architects Daughter;rounded=0;sketch=1;hachureGap=4;jiggle=2;curveFitting=1;fontSource=https%3A%2F%2Ffonts.googleapis.com%2Fcss%3Ffamily%3DArchitects%2BDaughter;fillColor=#dae8fc;strokeColor=#6c8ebf;" vertex="1" parent="1">
          <mxGeometry x="930" y="315" width="230.34" height="70" as="geometry" />
        </mxCell>
        <mxCell id="35Mcef35AUe8jmvGCrlI-19" value="" style="shape=image;verticalLabelPosition=bottom;labelBackgroundColor=default;verticalAlign=top;aspect=fixed;imageAspect=0;image=data:image/png,iVBORw0KGgoAAAANSUhEUgAAAukAAAD2CAYAAABr2xlsAAAgAElEQVR4Aeyd939UxdfHlyagFBsgIFUgVOm9hZYEUqmiFCsofhWlWVEERQRFAQk2OgGUXkIvKYTeSe8kG2ra/gef5/nMZpKbJaFmU3bPD/O6dfq5977PmTNzTRaLBUUV0tLSULt+HySFR8FiDoclNRqW1NicEG/Y1+dkm9c+0haO2RbRWDDfH+Pf/67InrOiel4lnaJ790lbSluWHhnIwrqAPfDs7470UF9kB0mQNhAZKKsyYCrKF4uG9OSISFjM1wqAcgF1xwRRUTAK79doLPxxhUB6ERoDivKdJWkJXDueDFghfZirQHpZBTMptygVWgbsDOmEcgHzwgFO4Nbx20Yg3fEgSMBW+rQ0y0AW1oolXUYQZATFIWTALpCe5+6iIZ1uL0bXF4FTx4dT6WPdxwt/FHcXgbrSDHVSNseST4F0bYWUrViky7oM2AnSY2AxR+aAuQZ0gXQNbbJ1LoAXSBcIdCwIlP4s3f0pPullHcyk/KJcaBmwD6RfixNAz50w61xAKgrIvf39k1jSZdKs+OSLDBSbDIhPugYc2QrslnUZsC+k51rT7wUXgTlpE2eRgQXzl8vE0WIDFLHylm4rr/SP/ftH3F3KOphJ+UW50DJgF0hPDieAajcXDaMygdRZoFTqqWXeuhV3FwEz+4OZtLG0sZYBgXQNOLIV2C3rMmAnSI/OWSddw4qeQKqPZSsg6zwyIJCu4UG2ApIiA/aXAfFJL+tgJuUX5ULLgF0gPSk8ImeddIFzgXHngfHC+logXcDM/mAmbSxtrGVAfNI14MhWYLesy4B9IT0lUdZJlwmkBfzUyrnAXSaOaniQrYCkyID9ZUDcXco6mEn5RbnQMmAXSE8O5xKM4TmATmu6rX+6c0FaYRZWOe8cciATRwXM7A9m0sbSxloGBNI14MhWYLesy4CdID1O1kkXC7rTW9C1EibuLhoeZCsgKTJgfxkQn/SyDmZSflEutAzYCdKN1nOxomtYk61zWM5t+1kgXcDM/mAmbSxtrGVAfNI14MhWYLesy4BdID1J/8xI1kkXa7KMKEAgXcODbAUkRQbsLwPi7lLWwUzKL8qFlgH7QDp90u/xQ6d13TktqVJv5+53gXQBM/uDmbSxtLGWAYF0DTiyFdgt6zJgJ0iPknXSRSERpSxHBgTSNTzIVkBSZMD+MiA+6WUdzKT8olxoGbALpCdHRMo66QLpAukC6bA/kAj0SRuLDOSXAfFJ14AjW4Hdsi4D9oV0WSddQFWUFfFJtwhE5YcoaQ9pD3vKgLi7lHUwk/KLcqFlwC6QnhSu3V30H0dlhRfxS3dev3Rxd7EnkEjaArwiA/llQCBdA45sBXbLugzYCdL5M6NIw+RRgXSBdIH0/B9SAQtpD5EBkQF7yID4pJd1MJPyi3KhZcA+kK6XYMxd4YWQ7ryQJnV37r4XS7o9QETSFMAVGShYBsQnXQOObAV2y7oM2BfSc63pzg1pAunO3f8//eiP8e9/J5MoxTddZEBkoBhkQNxdyjqYSflFudAyYB9Il3XSZeRARk5yZeCn+cudDtKzsrLAQEtfZmYm7t69+8hwYjabkZ6eruLduXMH2dnZj5VGRkbGI8W7ceMGbOOwLLbnCrJiFnQP47L8Bd3/KOeYNtvyYeOwvZi37oeHicdy2vYV833Y8heUl1EWHqYMj3uPMW+9bysztsePm1fpjieQrgFHtgK7ZV0G7ALpyeHRpWKd9OzUWDAUpSVbp/m46T5p/PvVRad9v3vkWtHKw8O0pzO6u8TExODSpUsKbKOjo7Ft27aHguz4+Hjcvn1b3fvZZ5/hxIkTCkp37tyJq1evqmsFARLhS8Ogccs0Tp8+ne9acnJyodDJuPPmzUNYWJhSEDTsff3116osPC4M9AjQgYGBuHnzZj6QZtxNmzblO1dQHR507ty5c6pcDwvqvG/u3Lm4ePFivrwLUiR03mxnBmMdz549i/Xr1xfaZjout+zz2NjYfPklJibi1KlTD6XkMA0qZiwj+4ltaQwpKSlK8TDmqfeZN6+npqaqOjNeUlISEhIS1DnK1pUrV/KVTcd1rK34pJd1MJPyi3KhZcAukJ4UHpGzTnoCLKkl86dRAmuW2RqyVRlYjriHAvaslDhkp+QvtwZgnWZmaoxSAPR5bu8HbPq+vPhWBUKff1D8+6XNa4yv086rL8vEOutVdvLKqO5nPVPjc+vxoDzsfV23hb3zKe70y5K7CyGUcEMLrK1F9WFBhml899136N27t0qHoNSxY8cHWoEJZkOHDlWgyzRefvllrFixQkHV77//jq5du+LPP/8s0DJMoLt8+bICecK8DvXr18esWbNyjwlpH3zwAfbs2VMgrBHknnvuOXz66acgFGvAd3FxUfBOeDUCrLFNCKcvvPACdu3apcrI+9iWDRs2hKen530hl9b7tLS03ECwZDDm5e/vr9qE0GvMV+/HxcXlxmda7MP33nsP7du3V+eZByH28OHDuHXrVr402N4MkydPxuDBg9V1nfecOXNQp06dXMDlfTpP2+3o0aMxZMgQBdo6/tGjR1X88PDwAuPRSs86MbDOVHQuXLiAsWPHIiAgAGvXrgX7n/vTp09X/WCbL49fffVVUCH64YcfwP7avHkz/v77b3h7e6tzb775Jvr27fvQykJBeZSNc+KTrgHnSbaWYG8UGD/YF9nBPgVfC7IfXFqCfJEZ4m3NO9gHliAfZAdbz/FablmDfZGlQiHlN977gH2mkx00PCdt5umrQknUP7d+Dyizo91nX0gvwXXSCax3kiKQGHERsZdOI+7iaaRGXMLdxIj7wnR6YjQunTiKxCvncgGWUMf0MlJj1Db9ejSuhB1B7MVTyEqNzw33g7/M1FhkpMSpe+8kMY8jSLp2Pjcu07lf/Add0/VNjrxkre+l00i8eg7J4ReQfO0CbsaGIyslD8hvJUTiIssQfhGZOcrMg/J41OsaurNSYu5bN953Oz4csZdPqpCeHFXkIyCPWvaivH/B/N/LhLsL4YvWyJ9//lnBzr///luo1fJ+sEIob9asGb744otcyCT4EXjvF+/kyZN45plnEBwcrPKtUqWKgjUNe4sWLUKtWrVAGCVwGtPat28f3nnnHUyaNAnvvvuugk0Cao0aNeDu7q5glcdjxozB22+/jS+//DK3bMZ0fvnlFzRv3lzBLMvfrVs3BdqtWrXC6tWrVRyCty6TMe6SJUvQv39/BahUGmjJJli2bt0aM2bMUPuFWbHXrVuHv/76S0ElwfKtt95SwehmQgWF5aHyVJA1ffjw4UqpIdSuWbNGhW+//RZt2rRRoMvzHCVo1KiRAmFj2TnaERERgT59+iiIp+WbUM3y9uzZE5988olqE0L+mTNnVB2N8blP+SEcf/zxx6qMVBRYVo5KsF8Lq/vx48dVf02cOBHDhg3DoEGD8M033+Cpp55SIzC//fabKjP7+I033lD9Z5s3j+vVq6eUL8oHFbxDhw7hn3/+Qa9evRT8z58/H25ubvnkpqB0yv45cXd5YlAL9kbWMW+k7vNA3E43xO5yR9zeoYgL9EJsoAei9wxBUqA7sgnyhcH8E8Bk1vF7Adty3AvJh4chaq8boncNRvKOIbh+2BO3g3xwM3CoKmP0LjfE7PXAzUPD8qD9CcqRfswLiXtHI2aXGxIDhyBlrxuu73BD8kE3pQg8cTs/QdmcJW87Qbp2d9EW3OJfgpHQeiH4AL75bCr69e6C/j07Y97XM3Ah5KAVAM1Wq7oGSW4JZqeO7UPjei9i0luvI8OcoKCc11JjLyP6yklkmGMRfu4EWrxcC2M8h9wD2bbp0ZJNa3Vi+EUkRFxAemocwo4EolHtGvj4nTfyxddxjYCozxW0Nd7H+l46cRgL532l6tu7d2dM+WAiZs74AFM/fBfLf/sJl06FIP06FY44HA3chrp1amLGJx/grtmqfDA9Yz46fX2uoOv6mnGr71OKTUo0rp4OgcWc34rP+433Hd+3DYP7d0f/Xp1w5WwQjCMVuhz6fp2X7bE+r7fGeCW5X1Z80qOiouDq6oqXXnoJBOQKFSrgp59+eiSoITwShgiGRn9oAu7rr79eKPQTeqdOnYru3bsriy1dLmrWrKkg/dq1awoYqUAQwP/77z9lWS0I+gjKn3/+OWh1ZqAF+MMPP1T7y5YtUxb9wiy6hG9anQnqTJtWfbrLEF4Jn4sXL0ZkZCSWL1+ugNUIc4xLuCQYEtD/97//qXiEQo4GME8CNq/bWrGZDs/Tgkw4ZujQoQNee+010G2ISg8D8+eIBO/lPcb8ud+0aVPMnj1bpbN//3613bt3Lwi3Bw4cAM+xXXlOuxHpNFhnKhisM5UTtgOVGgI2FaPvv/9etfmPP/6IunXrgi4wOq7esqwEayoIvM7ysk5UztiXdEMpSLnhObbfypUr1egL3V0I+EyLoyM7duxAy5YtFWhTWZg2bdo9ebMMDRo0AJUdKhEsI+tLxYcjMKwvrewc0dDlLWvbgtqu4DoIpBcFwCVsccevs9qiT9fn0bdrDbw32gVfTe6E6RPbYeyQBvhgRFNk2cmiHrGxv7KS63pkBXvj5rFh2LiwA4a7NkC/js/Ct189bFrQH9E7PLBmTjcM6V4f/drXwkSvBji4uK/BAm6wsj8iFCds64Opb7rAtX1NTB7RFFPGvIJBnV7Eoo/bC6Q/YlvqvnzUrV0gPTk8rlSsk55tjsOhPVtRqbwJFSuYcCr0MNJTY5BhjkO22WpVpoXbakkmTMdi37YANKpfG77DhiDdnKiA9nZiBJb8/B1W+v+M9NR4nDi0B83q1cLAHp3ugWyVnrK8Mz0roN+Mj8BXsz5B4LYAFX/X5rVoXOdZjPFxyxef8Mz4Vsi0xuc5Y2BZeQ/P2YInofjq2TBUMJlQ3mTCzm0BuJkSB/9fF+K5qlXQrWNrnAo+gIy0RPy77i80rP8i3h43OhfSWV5r2taRAysE5+XPcukyshy8P69sLFeMakvrfbG4mxKNc2GH8Pa418G+yE6Nzo2j66nj3zUnoHG9OqqvToceUv2k68n0rGWxlst4XsfPv7W2kW37lNRxWfFJJ0zSinvkyBFlcTSZTGjSpMlDQw0hgkBGoNq9e7cCMg0WBC+6vxCUaOm0BWzCPQGKYDplyhQMGDAAdFWhawqPCb2Ebe7T4jp+/HjQNYXWW50HgYXp03JOkGUguBEwuU+rdqVKlRT4FgQ3+jqVDCoYjRs3Bl0k6ALy4osvKjcQWurpPrFx48bcfFkXwiCt39evX1dKCq3ntGJzBIE+9qzfH3/8AVrkadG2bYNjx44pqGW+hHxCLV1uWG+66zAQoKlAEfw5GsA2NdadIwBMm64+bBe6jnA0hPu6vqwj28K23QjpTJeWb1rv2RcLFixQShGhncoJA4GZ8Mx66jT1dsOGDcriTYhm2atXr67aiqBftWpVJVtULlhHHUdvWQ8qcnRHIbCzDFQU2f+UCbY/AZ1KXEGQzvhsc7YLXWIotyw3FTW2C+NRAWVfUgEwtpsuQ2nfcvSIig63ts9P/rJnYd2GPfDs74700McHtEeFCYe7P9gbUQdGolKlcihfwYR1P/RBethIpB4Zji0L3DC4Wx1kBI/IZ7Gme0g+15Pj+d1i9PW8e3g9/z0J24Ziomtd3LHtuxA/WIL94NGvBcqXrwi3Pg1gCRqlYJnp1albDSZTRXzxpgvSQ/L6PcumDLqf8pdB32+04Puo/P6aOwimcib49X0Fcz/sBVMlE94b1SJfvZlm/nysdWIeefkwD58cVxydn2x1fxS2tROk04Kurefc3t/dwW7wZI5D8L7dCljLlzPhbNhxJEddRuTlU4i+cgbm6Ku4cioIl88E42ZytALUpIjz2Lp5JS6cPoZ0cyxuJERie8AqvPB8FSz5+XvEXD2P+PBL2P1fAMKOHUZmjgtLenIMksPPI/rSKVwMO4qE8PPITI2HOS4Ca/5YhipPl8PGdX8j9toFxIVfxLaA1bhw8lhe/JRYxF87p6z0UefDVNnoAnMrKQrRl0+rMptjryH8/AmcDzuKlNhrOUpAnoWa7Rh5/pSCdIL67q2bkHkjGVlpyRg51A1PmUxwH9gPN5NjVT0C1v2Fq+fD1OgAITo5/CKunQlB7JUziLty1grUrEPsNVWvuMunkBpjbbNrZ0NBl5kMs/V63NVzuHoyCOE8nxgOugRdOhUE177dMKB/b1WH23HXkHE9FnGs5/kwXD0VhJS4a0pRyTAn4pUG9VTZg48E4tqZUFwKO460+HDlZkRQv5MUqdKJOB+G2KtnVR7MPzX2GqKunEbM5dO4nRyDiAthqh2pRNhNth4wByEv32gs/HFFmXB3IfTqj31ISAjKlSunLMj63IO2tKTSXYGuHUyLxwzcJ5QuXbpUWbbpcnLw4EEFHMY0tQsLAYpATss7gZWBbhYMhDxCnI7HezVwcUs3CSoD3BKSCXf0baZf9cyZM/Hss8+q9HQcnQ7B0dfXV0HmqlWrlJsFy0mYJWDTsk0A5rE+p9Ng+Vq0aKHgkQDJUQRa2+mbTas1RwIYOHmUriCE/3Hjxino1fkzLY4AMB4VJfpXs54EXEKlhvzOnTsrQOMx4+gyMB26GBHC6RLC9qbFnm3BiaMsM++htb9Tp073AD5HIKgE6PJQESHQEtw5kkAoZBrst6effjo3PX0/y0HFiUoM76OCQDDn/awDlQ4qKbTQUwkibOq4LCcVCyoKHG2gwkNlj5BOP3UqjQRwKhBUVjjiouNyy3biSAXdYjjngOUloHMEgJBOH3y67LBsnIvAclDBMaZRFvY5OsH6UA6DgoJUPdmOVGh0/1rrkYW163djmKtAemHg83DnvRF7eAyqVDCBBotVc3vhTrAvwla5wXJ0DL6e2h5RdIXZ7o7kvUNhCfbCjcPeiN85DGkHvBC/0x0xW90Qv8sNmccIp94wH/RB7E4PFW4e8EL45kG49u9A3DliheO4HR6Y4NYIDevVROSeYbhx0OseGPYZ3EqVZ5jrK8gOsioJhPf6DZ6FyVQBsye1UhZ+pp+4exgiNg9E+H+DYD7kicxgH5j3eSF2hzsSd7qrcl7bNBjh/w7GnaPeyAryQnawF9L2W8sWs20ols12hamCCb79m+LHqX1gqmiF9Kzg4WDIPOaL+B3uiNo6CHE73ZF+1AcZQV64echbHfPa3aN+SNjhjvDNA5Ee5IcMgxLxcH3hvDBvF0hP0j8zUuuka0AvAWAyxyEoB9IrmqyQvtJ/MQb37wFvj4FY/48/enZqi3Ytm+Lwvp0K8L774lMMHtATH015B3fNcQg9HIhGdV9Q8DjMzRWzPp6MhfO+wZD+fTF+7GtWyDbHIuTALsz6aBI+nzYF3V5tiUnjX1dAfmD3FtR+oToqlDNhlN8wfD1zKuZ8MR2D+nbH/z54M9eSfjb0KN4cOxxT3puAt8aMwPzZn+N65GWcPH4APkMHYWD/HvjbfzFG+7mjUb0XseSn7xUg03qeC4TmuHyQvmfbRmSaE5CRloRlvyxQkM52CD68D7OmfwzXvt3xxcyPVT0Jw9OnvIOJY4bji+kf4f0JY63uPqnxCFi1Am79esFjQD/84/8rhg7qgy7tXLBxzQokR1/B4vnf4rPp/8O4MX7o2r4l/gtYietxkRgz3EtZxps0qo+pU95C2IFduBByGJMmvIZpH01Bu7YtsXjBXOWrz1GLpg1fUgrVX8sXw8ttIFo0egmrVyzF3ZRY3Lkeo0Yi3np9BD7/9EOMG+WHK2HByn0oYI0/3Ab2hrdbP4QcCoRbvx4Y0ruLatvctnloqDa0Z5HEsUL6uMnfKtAiXOlA8CnJoMvBbf6PvAWc7EerM62SDwMwtKzS0slAazfj0aI9YsSIXHilzzBBjtZSWtsJYwWlTRgj6I4aNQoLFy4E3VQ4cZBwx0mY9F03wqlOg/F4D4GTYMY60JLOc7RUc0InLcSEfWN81p1w/OuvvyqApdsFLdh0kSAAMhCa6d/MfYIRlQ/dZkyLUEhLMC3vnLhISzLhktZ1WoPff/99BeacUEtLNoGdFnZddm55TMs7QZVWbKZPRYXp8jrhvUuXLmqfeeqg03jllVeUKxDry/IT3gi1I0eOVOWmElS7dm3lVqLj6C3bmKMXhGuCMeGcgM92JKwTopkf3VcI3Dqe3lJRYdnYvwTg7du3K79w9gkhvVq1akrWOZmTZaBbio5LlxYqLaw7Rwq0UkVIZ7/xXiog58+fV6BNGdNxuaV7C0dX2M4MVLY4CsN6E8wpb/TXZ7pUvHher0DDOhmfg9K6z/cE25UyQvmkssWRASp2HC3hJGf2Hfs4Pf0OVm/YJZb0J3RHyAryRNyRMXjGZFKWZP/vXJG0Zwi+fKctLMd9sO33/vDo/xwGdX4JX37QBpZgdxxZ2h+j3Fpg8ZddMcGzHr56uwte96iFs+vcwImo2+cPQb8eL6J/z1rYMr8nXDs8C5fmlbBrWS+kHxuBT8e3V6zxXPXKmPJ6J+z4vU+uWwkt1ZlBPvAZ7KK+k569XGA+4oVbB31w+5Av6jWoqSD968nNkX7EHau/6o1P3miH9/0ao7VLJSz5uj3uhg7Dmnl9MKh7LYzqUxPrFvRGr9a10bZZFQSu7IfMIC+kHfLAL1M7o2er6pjs2wHvjesIk6k8fFwb46epvRSwTxrtgoyQ4UgP9sPZv93wrmcDfD6pJUYProsTqzxwO8gX+/92g1uP5+DW+TkcW+uLCYNeQptmlWDeP0pBunVSqvPC98MqJ/aBdK6TbjZa0AnoTzYx8lFhi5ZXWoeP77da0isqS3owwi+cUuBYtUpFBKxfiXmzP0c5kwlvvOaHO2a6gfwDgmy/nl1AF4ybyTHwGNJfPTj+S37G9ZhrOLp/FypUpJWxhXLxICi7dm+P7h1a41ZqIia9NQ5PlTMpME5NjkL79m3UQ7V10xqY4yOwad1fKr3evboqkKQ7zRDX3nihZjWkxkdg3/bNqFzBhO+/+UK53LR2aYqK5U346IO3ceTALnXtpRdqKHjVkK7rG3khz5K+Z9tmZKYlqLBj0wZVLyoLa//2xz9//q7K5OvphnRzAo7s3aosBst/W4iY8Et487URoHWb1vyU2Cuo8lR51W6r/1iC8AunUbfWs3jxuapYsmg+qlY0Ycum9bhy8bSqV9NGdXH7eiz+XrFUtS0t6SmxV5VF3qN/Twxy7YG75hR079IetWs+DXPMNdxNTUDTl19SZZz9+TQE7vgP7DOXVxridmqsstDXrVUDX82ahrTkOHRo2Qyv+XniTmocYiPPo1IlE6pVeUopUSOGDsbgnta2fVS5Kfr7o7Fovj+8Rn+MsLATClgILQyEwJIMuhzcEpRsobNdu3YKZggyRigqaJ8gqVc1IUwQKmj1pXVUgxAtyIRTgm5oaGg+UDamyfIQBDmBlRZwWklpHaWFnrBMGDGWifu0hNN6PGHCBAVmhDVa42k5p3WfoEkQpJ+9hhoCGeNSweC9PKaVmRM06YtPIKU/NwMh8auvvlLneJ2KiBGyWScqB8yHbiGEWlrPCYMsrw6s9/3cLbTLDfNmm9D/nm3B0QhCOv2reZ7l1kG3HQGXlnsqEIxDP3ROyqxYsaKCXVqRafGn5ZpxdTxuqQTpOtJliD74VFrYJpwH4OPjo+Js3bpVQbYxLtOi/zmVAwIy82d7aqs6reKEdC1fVLzYpjoNXQ/6snOSJ89TEeIEV45MsE85t0C7/DAfHZdbpkt5owxQdugeQ3ilHLKuTIN14oRklo1p8zzjUq70M2h8HkrbPstI2WHgPuWDygb7nEoP+5UKHfvx6NHD+O33dfB0dUN6aH5XiocFA7nPFxnBQxFzbDRqmMory/V3H7bBl5Pb4LV+zWE55oX0UE8MGdBMgfGX73WHJdgDV7f7YaLPq3i5YRW8P7wFbh93R8/O9eDau66ybicc9UUFUzlULFceK+f0wZJZ/WGqWA5e3esh85gfAgM81He53kvPI+7wGNw5OiJ3RRVbSO/aqRa2LuuBXb/2wZ4l/VC7ztM5kO6CyyuHokaFKlg0szvMIaNQrdrTqPrUUzAf9kP0Fl9UMVVGxSomrFvgjh8/6q6UEF/PV5AV5IvNC3uhXBUTpoxsi4zjYzB53KswlSsHnwENsfDjHjCVN2HS6FbICh2OhAND0aFZHYzxaoabQZ4Y0bcFerd9FmnH/ZAROhQvPfeUSvv91zvhdY/WaNe6Nq4HDkdWqF+u8iGydn9FxU6QHpWzTjrhXAN68UI64TUzLQ5HD1ghncM1Z8OCEX7prPIvq13rBaTfSsPGtf8okBw0qJeC9G0BaxQocqJpujle+W/7Dh2CSiYTVv/hr6A56NBupU02c2mGLHO08sseN9oHfbq1x4UzYRg7dpQSzDlfz8TdW0no3rE9KpUzIXDnv8hIi8OWjX9bIb13LzUx9ezxfaA7TvNXmsKSEosrJ0NgesqEpk3qIz0tFh3auqgyHdy7DebEKFSpVB5VypuQlhih4hMsdX2phNAfne4uhPSMNFrSE7BjS4Cy5hPSV65YglV/GSE9EXu3B6Ba1fJ4ptpT+H7ObOzbtRXpqdaJs+b4y6hStRLKVa4Ac9xlZKclYcDgPiqPCWNGo8urLfHrovk4ejAQ5cub8PxzzyDzegTWrV6h2sFtsCuyzAkIObQXT1UwYdyEEchIicF6/9/w8XvjcTcpGndTk9D05bqq7KfDjiI66hIqlDehevWquJ0Sj5++n63ymzvva5wJOwyPAT3g0rgubidFIT7iDEz0G6xUHhdDDiI9MRY34yKLXTEsGPCjsXD+MjR26QNX137KWkmLJQMtYSUZdDm4pQsBYYeB7hF0D6DFl5BG2DFC0f32NXBxoiOXIyRQ8H6eJzBr+CwsDeavgZrgRcs3rYS0ohJEtmzZck9ZeB99xOkGQMil5ZVb+kgT7gj3PEeIJqQzfcIkrY4sF2Fb+0kT0u7GaSoAACAASURBVGkxp0uEdj0hHNOCz3i0/utA4NP1oIWYSgnvJcQTlqgUMA6hUgcN0sxXx9VbloPWXlqwackm+NPqzxEItsH9IJ3QSfcSvSY606AVn+c5iZIuPLTm08rP/GzzZ3mZp1aw6O5C9xHeRz901o19QyWLVmpdZm7ZjrRQE37p0kQ3I/YVlQLG0av2sJ+M8Wz32X+EdNabihnjM20CPd1dWBe6fNDSb4zL+znpWa9+w7Zm/1NZogzT0k6liiu+sE+oONJCz7JxxSDjc1Ba9/me4MReBu5zFR5OIqZsUMa5pR8+26lfvz7w9p0AzwEDFUgKBN0fggpqH1p500M8EH18JKqbKipI/2TUq3jLryXGuL2MrBBvWI55InDZUFSobELzRjVh3u+JpZ91xtfv9VYuIbPf7oSL//bHa4NcUOe5Grh+eBhSj/iqEe3K5Uy4e2wU9vgPVD7eHVxqwXLED+c39lffzJca1FT+4JaQ4dZtsJ9ye7Fa0lup72S3ds9i7fyuWPv9IKz+YRDq1KmqIP2LyW1xZt0wdGtTBzPfaY9z/7mhxjPPKGt4wq7hCN/rpvjlhWrVYAkag4BFPa3GtF71kHVsOEYNaYpK5cpj+ZyusBzzwz8/DFH18RrQCAs/7mmF9FGtkR3qhQ1Luin/+ElvvILLm4Zgko8LXqxVGdf2DFVW+dq1qsFUriJ2LRiIW8dHwHzIC5msU6ivqldBbS/n8surXSA9OSKyxNdJVxMJ0+JxLAfSCY9GSK9V+3mk30rNhfTBA/vgtjkBWwNWqwegf5/uyDQnItOcBEI6LeNr/vBX1uWQQzthqlAOGtK5ekt0+AWs+csfH30wGQMH9FFC/+1XM5BxMwndO3VS8TkplRNXCem01vfp3U9NYN227m/1Emjdqo1Saq6FWSG9SpWncDMlHO3btFSAenD3VpgTIlGloknFp4uKtqTr+oZfzIP0vVs3qzpwougfK5YoSKdFPPhwIP5ZsUTV03eYu1I8CPyjhg9FzepVVF7jXhsFM5dtNMciLe4iKlethPKVK+Fm7FVYUpPgN9JL3Tfniy9w/GAgvv1qFmZNm6os/s/VrIGM5HCsXbUC5cqbQEinsrbqj6VKGfEY5qoUIPrs00c9MzVOjVrkQfoxxEReVG3yzDNVcCc1AR9NelMd+/l54rcF3+G3+d9i8fxvcCs5AgnhZ2GqUBFPV6+Gu4nhyLqegOwSXP4zP6xHY9GPv2PsW58h1XxdgQxhprQFDal0W6DLAkGVgMil+WgRJqwRkghDhCJbyDNCE/cJfQReQj6PCaC06Ba0KokxLmGcsEFLJs/TcktfaS8vLwVaxnv1PstCqzEnq9LyTGAmzHOfgMoVWrjPibGEdFqbCW+EPcY11oVlpjuB7fm2bduqNjHeq/PnllbeHj16KJ9zrqDCdiO40vqu+5rtSRcOrlJjjMt9AiN/GNSvXz91nZMuWXeeJ7yyHQnphbm7EM6pFGmFivlyNIHx6Z/PkRKCNkcbbPPmMd1dPDw8cq8R0jmSwWvsd1rkmRZHTDgR05gGYZhWarYNRwxoAedKM4zH+6iocQlGXTZjXO4zXY4uUCkgeBKwaQmn4sXRGZaDrjxU8GgVpwJlTIN+7zxPRYrzAGjFpyJBhYQuV1Q+eI6KC9fAp+JHizTT0IoQR1PYP6U5sIx8PtneXLmGdaIyxPkSrCNdnKiYxifEYu2G3Rg2YLBA+mO6vFghfRhij43E06anFOBunNcZmUdH4Yt3OyIjxBvpQUMRvdMP3VvXUtC7Yk5PfPNOF8yZ3E0du/Wqh8UzuuO3ad3w3cyuMB/0QNqhEWpEmt//O0eHI/CPQcqS3sGlDixH/XAuoJ8C7TovV8+diEl/cwbCqxXSOTJfHt6DGlrPh/ghO8QPDRo8i/KmipjxYTtkH/VG2Ma+WPBpZ3zxdlc8W70KTKZyiN7hhYhdg1X5nq/xtJp4uv7nnurbOrD7S+q4p0sTlf6f83sh+6gv/v5+oAJzrwGNsfBj7e7SEpZgH/w8s5sC+IGd62L5rK5YNrM9fpnWETGBPkqRqV27uop74V8vZIYORUaIp/LN1/URIM8P5AW1h50gnZb0a7CUICjRTSPbnIDj+/YoKzgnTZ4NC7Ja0iuaULtWTdy9dR0Ba/9SsDrYtTfumhPzIL13d2SkJStI9xvmBmq+K1csU+4voQdzIL1FC2SnxqhlDT/+aDKqVa2IsOAj+GDy2yrNOV/OUGl079wRlU0mBG7bALq20Geb1u7evfvAYk5AaOAulKtgUis/EGYvBR9FuYomNGzYALfM0Wj/amsDpNOSblLQb06MUC49FrVaTYKqb/iFM6q+tPwT0rPMybhzPQ5vvTMWlSqa0LdnN6WM/POHvyqDj4L0eCRHXkDU1XOYNeMj1Kn1nErj4O4typ0nLfYCnqpSCRWqVMGNmKvIup6IoUOHKOCe+uFkNG1YF2+OG4vIKxeVIsChdk4cXbP6T2UVGDy4rwLnbZvW4qmKJtR56VlEX7uA28lxSIsNx+3rUbiblqTS4QgA+yk26qoqHyE93ZyM2bNmKsXnzQmv41YSV+iJR1LERWSYo3E94gIqVKyEajWq4+71CAX9WWa9/GdR+5g/anpWd5fxk2bnAwsjZJSWfQIL4WjgwIFqRRSuisJJiAQ0lpHARP9eggDBqjBgJagRWI0wRcsofdwJr4XVl1ZT+hazDLyHeRAq6aNN2GY5CHM8b5sGy6KXKSTsUUkgeHLiKK3ZPGZ9KJvagm6bBo8JiQVBOi2UBZ3XaeiJsnSfoOWWSgOt9bQq04LMQEglpPMeHY9b1odxaCWlEkMg16MbrJeOT0sxIZ3njIFpUKny8/PLPc886HKj+4kuPhwtYRnYF/RXN5aBbUbA1bBKYKdbii4fy8By0a2FsG+Mq++h/zlhnS45tPYSJNku3BLa2e66LtzqNFgeWrepiLHerCf7mSMZHAFhvxHACe86sP46PqGVeVOZY5+zbpQZxmWaTJsKA0dSaKln3sb4Op3SvmXf0X2KbkGsK5VAtg0nkbLOeXXKxtqAPTnuLsbVOh4MBAVBgjOeI6QTxJOPjEHlCpUVpP81vycsx3wQtmoI7oZ64dLWQVj5fU+s+HYgKpSvhDaNn8XOZa74ZUZ3lDdVwfABjWA+NgyW42Nwfa8f0oN8cePgaDVCzBHtO8d8se/PgTBVqIAOLV6C5fgInNuYA+n1qilIzzjqlWtJ1yul+Li1VRA9ov8r6lpmqA8YGr38LCqYKuKL99shfssQdGhXE4O6uuDG4bF49jlOfi2HiO2eiNk5RH2XX3j2aWQH+WHdou5qkYBBCtJHY3D3+ur6b1/2RPZRP6yY01+BtqdrEyz6n3WUgD7pBO2V37iqkYCBnRvh5qGhyAzxRMpeb9w97qes5S+++IyKe3W3ByxB3grQs457wXJcZPFhnyv7QLrySedPgzQo6ZVeHhVwHv9+QjrXBA/c9q9yNXmqvAnHDwXi/MkQVKxkwvMvVIP5egz+8V+mYLB/nx64kZKAgDV/K2twz+5dcOt6vIL0t96wzvD+ce43ahnHw3u2oFLFCmjevBn4Y6IbceGo9nQFVKteGbt2/oc3XhuhhrSmTZkMc2IM3NwGKP/qVf5LcOnkcaxf6a+gu1ePbshIicbthGh07NQWDRrURWrUFewKWIuqVSti2tQpSEuJRNu2rfBU+XLYvW0zEqLDUaVyOeWXzlVmlCU9B9IzUmJxNvS4tb7/7z6zcfXfSI64guBDe9GwSR20ad0Uh/btUJDuv+RX9bLwcBuEWykxauLrr/O/QULUNcz+YgaqV62Iw3u2qfRv0JJe5SmUr1QBp47sR9zlC2jl8gpqv1gdI0d4quUt33l7IrZu2YTKlcqhWrWqiLp4UrnYVK5sQo/u7XHtZAiuXghDqxYNwb745INJOHE4EIFbAtTKLGnXY9H45Trq2vEj+xB++RwqVTCh2tNVkJYYi/27tuLF6lVB7X/npnU4E3QAfy35CXdTYxBz4TSqVKqEGjWehjnuqlJcqKDlt2g/viw9WTqE9BUYP+nbXKgorTBAyy2HzmmRJdwy0N9V+1DTUkffYvq+avgz1oXnCNWcREmAIAzR8k5LPAGXoE2YyoMJS26bEDLoRqLdULR/McGS8EnQJqASHAklhH1tqWUZdJq0KNNqzEmbhHq6AdACTVikqwSty7Tqs6zGsut9+uHzfqan0+Q1Lp2oIV3fa9zSJYSWW/5QiZNlOUGUftxsM4I3A0GckE4oNcZl2eiOoZUhlo1gybqyDPTp5sgC/fO5lKAum94SntknVJ7oFsM24IgEA//cScs93Wg4mZNWbYIr28dYP+ZHiyzdYmgt54iCXiOffcGysQycGMt6GcvPfcoIJ5nSck3ljDDP9OiXzh8oMS22EUc79uzenW9OAi3kVFAI1ZQPKlval59tw3icaEzZYuAxz9uWgdZkjpqwHBz5YF1YV07i5cgJ3Z4I6QXJrm1apfGYzxKVKcoh5V/3v7EfWe5sSzbW5EK6+KQ/LAwZ71OW9CAvRO0chUqVKqNc+QpY9HlnpO71Quw+T5zd5IoRQxsj0N8diUe80aJODbzqUgtpISMQFDAYtWrURPUq5bF2QR9c2jAU/vO64tZRNyTvHa1GlytUNCH1gDd2LXOFqWIltH2lLixHR+DKlgHqHfF8naqI2uKOuG0DlAVdWdNDfMBVYNwGtEL5chUxrFdj3D7ih0yuKnPEEw3q0rhWCdPfaoafZ3RQ1nK/3vVxzN8Dzz1Ld5dyCFo1CFf/dUO5ciY8V7MKbh7xwd/zu6F8hYpw7VIHliOjMPezzqhSxYQJ7k0Qu80NX73XXlnaXbs3wtdv91auuG/5tsCtUB9c2eyJei/UQOVylfDPnG4I/bcf1n7XC3GHXHHriDdqPf8MylesgNOb3XKXYqSiI5D+8EqKXSA9KTwWFnNUiS7DSEiPv3wGSxfNR7t2LVRYvuxnbApYhVfbtUCXjm1x/nQoFvzwLdq1ag5Pj8GIvHYevy76AR3atVRLFUZfOat8qf8LWIWObVzUiiOr/1yGdX8tR6d2LdGnR2e11N/t5AgMHdALrVo2wZjRw7FwwVy0cWkKb/dBuHzuJP7w/w1tWzXDSF93/LthJRbN/w4dWjfDkMFcmjBMrS1+dO9W9Oz+Ktb9tQyzpr6PEZ6DkBhxCXFXT8G1f0+0a+uCP/1/Q8ixA6p8Hdu6IGj/7nyWdP5ddP0/K9CuTTNV3xlTP4D/skV4bbQXJr33Os6fPGxdVjIxGj988yXat3GBn6c7Yq+dVctGuvXthnV/L8fXn3+KN8cMVyuqcPLtzfhLqFy5Aio8VQHTP5qM776YjlbNGmDuN7Pwz19L0bJlc3Tr1gm/LV6kVqFp5dII/r/NR0LUJXgM6o32bZrhy08/BC3//wX8qVaGaVGvDvp364Cf581WPvNcCrJHl3bo2LYlNm9YhX27t1rr2a4Vzp04gvSUWHz+6fto7dJIBR+PgUqxyDTH4+COTejUxgVdOrgg7OgeZN+IhSWNMlgCKwrdsyKMFdInlgFI5/JuBCrCpvahpvVRffizs3Mhl5CsAUHDDMGHy98RJAlFGqAJFbTK0kWCoF0YIDFNXieIEC5pGebqLpy8qMGe7iqEVLo+UAnQUKvLwC3TpwWZsEyXDS7DR2gz3sN9W7DR1wmnhFTb+mno0/fZbgnjhHO6uujy6hVL6ApDQGR4/vnn74F0ArNebUSnS6VFu4fMnTtXjW5Q4SCM67LpLX3jOVmS1nP6oetVdtgPdAPhSjv0R+cxy8mfFNEdhnCv82M/cwUUKhJUZti+bAdeJxB/9NFHyt+ZbiSUEx2PW47A0L2I/UXg1uWissA8aR2n8sN+oysMA11weB/jc6tHN9h/tKRTyaEMUhZZflrm9TFHczgyYiwD96nMUQmjXzyhn6MHo0ePVrLA+6kw8Fjnaxu/tB9reXhQ+bMs2Vi1cQ+GDRgk7i6P6e5CYE/b747tC9zR2qUWWrnUwtveLvjnuwFY/pkrRrs2Q0uXmgjf6YfsEx74fnJnLP2Sq6OMxd0QL8z9sA3aNnoBrRs+D68+DbHD3x2WMA8c+8cTrZrXRtuWdXFinRfWfTUY7Vo8hz5dmyB5u3X1ljFuzdCseQ1MHfsqYreOtq6DnuPycmpjf7gOaA4XlzoY0qcJwtb74m6gF0L+7o+O7RqiZfPamOzdGn99102Bf/sWL+PH/3XHCPeGcGn4HL6Y/Cq2L/ZB+6Z10MnlBZzbOhxLZnVFuxb1MMi1ARICRyL1sC9G9X0JLo1qYNprnfGub1e0bFQL/brXwkiflnBpXRvv+jZHaqAfsk544ZeZPdC+8fNo1qAyfLvXxebFQ3A32A0X/h2Jbs3roN0rL2LbIjdkhFgni3ICrEB6CUN6cjgt6Np6blzlpfismYR0WrivR15CcvR5JEUxcI3yM0iMPIukiHNISwhHcuRFpEScx/WoCzDHX1P3pERfRmrkBdxKoE92vPKfTgi/iNjwC8p3OinqCpKjriAp5ipSY64gMzUatxOvIeHqSQXcd83xiLh0Wq3UwqUF6duecO0imMYd/n008rJarz0h6iJuJFxToM18UqKvIPjgHpwOPoC712PU+ZvxV2GOPI/E8LOqDizj9ahLqszm6MvITrEucUnL8c34cCRFXEBS1DkkR3N7ASkxV9TETK7nrn6EZI4FLe7Wel+EOeoimMethAiYY66qtcvDDgeqe/gzIk6MvRF3GZUqWSE9IeqKmgB69cwJtXQjJ8LGXTmFm3HhyEyOw634KOufWdOYXzxuJUYi6uJpBfycPErovx5+ESGBu9R67LyH582xV5Acfg4pkReQGnMZ5rhrqo/YDzdiL6t+oO/6lTPBOHZgJ8xcPz0tQa0+kxp9FcmRl5AUdVn1R5aZbVd8snZ/S7sV0ie8V/ot6Q+CFMJBYYBAKCf4EbaN6fB+usnQIk6LbGFpEKQJt4Q8rmdOf2Rtwdd5css06NJAiyl9vfU1Y57cJ9BQ4WCZCH621ws7JlRSSbAtJyGXa8cXFo9lMUIv76MrAi3HzF8HtsP9yq3TN9aL+1ReCOBUhPQ9ess24+iBPr7f1piu8T4qCgR0XW+mZ3RJ4XlacAnoxvNMg/FoBdeKmTFd1pvtQl9vQjv9xzkhVOdjvFfvax9+wj/hnYH7lAfuMx8e6/v1lhNMGZfHHK2gPHF0ge4wzI9tSJ9ulonHOp6jbQnpqwMI6UME0h8X0oO9kX54GOIPeiN2vw8S93vj+l4fRB/wQczB0bi+ZyTiA8cg47gnLCHuSN07FDcOeiL7+Birv3rIcFzdNgZH/hyMhINDYeF9oW6IP+yF+H1+SDgwAjcO+MEc6I2EfZ6IDxyG2wfGKJ9z+r2H7xiOtKPDcVf5cOdMsgz2RtwBXyQHjkfygVGIPjACMfuGIeuQHxICR6s0Ew+ORCzvOTASCXtHIHnfSGSFDMP1oOG4GuiD28HeSA70Q8JeP8TtG4ukQ7zHC0n7vBF5eDzMR/zU8pKWgyNwfN0wRP3ni9R9PgjfNRo3g0cjft8IJO0ficR9I3Dr0Ehkh3oiO2QEIvb64sg/Q5Gyd5Rauz3z+HAkHWIeY5Ac6Ivre92QHjwKmSHWnx7l/8HRwwOrcbTDWfbtYknPhXRlTS/BddJzrZosQ4xy3bBOtLQeE65sj63Alf+6FSTjFRBy33jM+PnTiMlZltF6P5UF7fbDfcJ4bvycuDoNXs9LX6dL2NTl4dZ4XBiIWu/X6RqXv8w7lz8dfV6VUZXT+gfRLHOU8vmuWKmSGraigpHBP5OqeugyxqhVaagw5Kaj61ZgnaxtotsjLw7j56WRV29rPryP+XLVHbYj47NuuszWdtVlKqxtivt8DqRPLvuQ7mgwU1z10UDqyGBYWFuWxjqXxjIV1n6Pcz7LkoVVAfyZEZdgFJ90u8NccP42pqtMQXkWdj7fvQWk9VDxHlcZecJ4hZWtsPP56vqEeTtLWnaCdLoaGC3oehnG4gak/PkR8u5v9Sz4uoZIDfXG48LSKywvHfdB1wtLt/jOa1iOwemjgXilUSM0b9IIoQd2Iet6jBWMc0BcrdHOdelzlZ5YBe0sqz5nrK/t/cY2Md5XUF2N99pef1Bc2/uL51j7pH/jsJa7xwEJiZPnjy9tIW1RlDJASF+9Ybf8zEggsEBlwVng1lHqaSdIjy7xddKLB8AKhnpHyVst62iOw6XQQzhz/CBOHTuAM0f3ISOZlnpas/Ms3Hrftu73nE+5N46+h9vc+CmG/dwRkbJ4jpDujwnvCaQXJYhIWgK2IgP3ykCWxYJMSxZWKku6O9JDC7bqOgrASD2kfx1dBuwC6UnhESW+Tnou7JVpwCtZKNVuJNyq1VLUiinxyE6xjowY4Vrvq3YnYOdAdkHn9bmCtvniOwSo82dGAukCVPcClbSJtElRywAhPT0H0j37u6vfrzs6xEj9BNQdWQbsAunJETl/HC3BddIF0ksW8KX9dftrdxfxSS9qIJH0BHJFBvLLACE9IwfSvfu5q4l6jgwwUjcBdEeXAftAeu466bS4MuiVXjS4yFYg1llkQCaOCkjlBylpD2kPe8lAdo67CyeO+hDSC5nE6OhgI/UTeHcUGbATpMeV+DrpAsHOAsGlvZ45kC4+6TJx1iJwai84lXTzZCvbkoU1nDjqKj7pjgJqUg/nVTrsAulJ4UbruXGVl9IOVFI+UW6KWgYE0gWg8gBK2kLawv4ykIW1G7gEo0C6wK3zwq2j9L1dIL30rZNe1OAl6QnMP6wMENL9MX6SrO5ifzgRAJQ2FhmwaEt6f4F0RwE1qYfzKht2gfQk5ZMelfMTHsKMdTUQAbuHBTu5z3Fkxbq6i0C6wJMAtMhAcciAWic9QNxdBGydF2wdqe/tBOk5q7soONeAzr9DCnxKGzibDIi7S3GAieQhACwyYIGsky5g6kiAKnXxhV0gPTk8UtZJF4VElDIlAzmQPkmWYBSIEpAWGbCvDBhXdxGfdAF2gdyyLwN2gfQkBenhsMg66QKqTq+s5ED65DmyuomsbiIyIDJgdxmguwuXYBRIL/uAJpAtfWgXSE+WddIFzp0ezrVbj4Z0saSLFdW+VlRpX2lfyoD4pAvYCdw7jgzYCdJlnXTxPdeQ6uxb8UkXeBR4FBkoHhkw/nFUWdJDHAdWBDylL51RBuwC6UnXZJ10gXRnh3Ndf0K6PybIz4zsPswvIFg8ICjtXHrbmZCebsnCyoDd8OrvjgyBdDgj2EmdHUehsQ+k658ZmW2XYdTgIluBeGeRAVmCUaCu9EKd9I1j9Y3Rku7dzx2ZAukC6UGOA6zOqHzYBdKTw2NhuQfQZQlGAXNnAXNjPa2W9PGyuotY0mXSpMiAnWXAuLqLDyE9WADNGcFO6uw4cm8nSI+GxRye8xMjWSdd4NwIrc62b7WkTxRIF0CzM6CJVbx0WcUzMjKQnp5e7OFuxh2sXLsdnq7846iPWJLFkiwyUIZlwC6QnhQeIeuky+omssJN7jrp4pMuAFm6AFL6w779QTjfuXNnCYXtmPX5fAxzdUN6qJcAWhkGNLGIO45F/HH70k6Qzp8ZyTrpYkF3Nqt5QfUVn3QBQvsCobRv6Wvf2NhY1K9fH76+vvDz81Nh+PDhKJ7gix59h8HTdTDSQz0F0gXSRQbKsAzYBdJlnfSCYE3OOafSYl2Ccfykb8TdQ9w9RAacRAYiIiLQqFEjpKSk4MaNGyqkpaWhWMINM/5etRWerkME0sswnD2u5VXiOZb13U6QXtA66dHi/iAuME4oA7JOulh6S5+lV/rEvn0SGRmpID0zM7MEFLNsbAjYC0/l7uItVlQBdZGBMiwDdoJ0ruRCKLcNYk12TmuyM/e7QLoAoX2BUNq39LWvhnROHi3+/snC+oC9UD8zCnUsq6JYiaU/nU0G7ALpBf/MKMYJrajODKdSd6tCJkswFj+klD5okzZwrj4hpDdu3Bh3794tEUhft3EvPPtzdReBOmeDOqmvY8m8XSDd6pPOHxnRkq7hnEsxCrhJGzibDFgnjk6Y/G0JfKydC4wEhKW/S4sMlCSkZ1mysJaQrpZgdCxgEQCV/nQ2GbATpOt10o1+6PIzIwF0ZwN01le7uwiklxaAknIIzNtbBkoK0vnH0UxLFlZvEncXZ4M5qa9jKjD2gfSInCUYlRVdLOgC584I57rOVneXiWJJl5EEJ1nZxN4AXBbSLylI138cpSV9qFjSZcJkGZ4wKUqHVemwE6RHwWKOyPnjqK0Fne4vEqQNnEQGzJFYtMAfE98XS3pZgCspo1jZi0IGuARjSfmk092Fq7t4DBCfdAE9x7QuO1O/2gXSkyKikWWOQlZqPLJViEV2qoTibANtvS8szyxzLBgKuy7ni6Zt+BwsWLgcEyfLOulFAT+ShkB0WZCBkrKks22skL4HQ10HIyPEG5YgXwkO2AYPAlXpd8eQ+yKG9BuoU78PjhwMxZmwYJwJC8W5E2E4f+KECmdPnMA57odaA/fl2D7tcTH0BC6EhuL8iVCcVf1g7QO2PfvhTJg1SPvbp/3ZzmzbM2EhmPHZQrz9nkB6WYArKaMoAUUhAyUF6donfd3GXRjYvQ8ubvbAhQAfCQ7YBuc2+uDcRm+c2+iJswHDcH6TN85v9MkNFzf6QELZb4MihfRbt+6ia/cx+GjqQkybOR/TZ/yIGdN/yg3TZlj3Z077CQz6mhwXfXtM/XAeJoz7BDOnsx/mY8b0Baq92dbTpy9QYdoM61a3vz4vx9b+KJL2mPkjho+cgS+/XCo+2eKTLTLgJDJQUpCufdJ3Bx5Brx5jMON/E/Hp++Px6fvjcgL3JZT9NpiAqR9MwCcfjMO744dipFcXvDfBE9M/HJ8XpozHdAllvg2KFNKzsy1YvX47lvmvx+8r1mO5P0MAfvffaA0ruB+A5f4bLqoS2wAAIABJREFUVeC+HNunPWbNmg+Xll2wbPla/O7PsEG1tbXN1+N3/3VYpkLe+WX+G8Cg+0WOi6I91uL3FesQEnYeFku2QJqTQFpRWGMljbJr1S8pSKfMZFuykZBsxrIVm7HMf6P1e+y/DktV4DvN+t1d6r8BDHJc9tpjmf8mLGVYvhEDBnihdetX0aePO37/fQ38/depwO+ODsv98/Z5To7LTnsUKaTzBZFluYsMyx21zbbcRbYlA5mWzJyQgSxLBrItmSpwX47t0x6Hjx5Gtx5dkJ51F1mWdGRb0pFlyVTB2i88z2Cf/NnH0r958k0/UYH0sgtdAszSd48iAyU5cVSXM8OSJe97B/y+Wb/j2ci0ZONa1DX06NUFP/wwH127d8fla1dBlycJjtMGRQ7pBBFq8gwaSjgEZwz6JaLPybH1A1iU7XHkyBF0694dmdlZyM629kVe+vqY/ZT38c27XvTlYR87e/pazmWbJ3PSFtIWjigDJWlJ1+2Z976V9z3bJK89HOP7lpWdjTlz52L06NHIysrC6+PG4avZXyMzO1sg3YEUFTtAunx09EuyJLcK0rt1U4BuhXTpl5LsD8lb5E9kwHlkoDRAusibY8sbZaxHjx44cOCAcqM8ePgwunbvhmvh4SDAa6VEtnkKWllsC4F0gyXZkV5qhPSuXbvm+kALqDv2C9uRZFfqIrJa1mWgNLi7lPU2lPIX/h6g5XzevHkYNWqUsqKzrXhu7Nix+Prrr5GZmZn77Zd2LLwdy0LbCKQLpMvD7KAyUBZeQFLGsv0Bkf4ruP/Ekl5wu4i8FE27UL46dOiA2bNnK0v6wYMHwUBwb9OmDcLDw+W77iDfdYF0B+lI25efWNKL5mVo265yLO0qMiAy8CAZEEgXGXmQjDzJ9UOHDsHNzQ0TJ07EW2+9pUbNJ0yYgHfeeQeDBw/G/v37BdIdhO0E0h2kI20feIF0+UjYyoQci0yIDBSPDAikF087O6s8m81mHD9+XAUCeb169RAYGIjg4GAcO3YMvO6sbeNo9RZIF0iXh9lBZcDRXlZSHwGfsiIDAukiq/aUVc4x0/PMCOT169dHcnJy7jl75i1pF69sC6Q7KKCJJb14HyR5cUl7iwyIDGgZEEgXWdCyYK+thvTU1FRlSU9JSRFId0CeE0h3wE7lS0EgXT4S9vo4SLoiWyID95cBgfT7t4/IT9G1j4Z0bqVdi65dS0tbCqQLpMuD7aAyUFpeMlIOx/twSJ/ev08F0u/fPiI/Rdc+AulF15alUS4F0h0U0MSS7tgPbml8mUiZROZEBqwyIJAuz0JxPQv0SX/55ZchlnTHlDmBdIF0saQ7qAwU10dC8nHMj4P06+P3q0D647edyN2jtZ1A+qO1V1mTL4F0BwU0saQ79oNb1l40Ul6RR2eSAYF0kffikncN6Zw4Wlx5Sj7FJ98C6QLp8mA7qAzIi7T4XqTS1tLWRhkQSBd5MMqDPfcJ6Y0aNYJAumPKnEC6gwKaWNId84G158te0haZERkoGhkQSC+adhR5fHA73r59Gx999BFu3LghBjcH5DmBdAfsVL7YBNIf/HKTD4C0kciAyIA9ZCAmJkb9qj09PV3AyUG/sfaQG0lT3ke2MiCQ7qAvEIF0edhtH3Y5FpkQGXh8GaB1/M6dO/mgOzY2VrkZ6B/L6PalC8KSJUuQlZWV735ez8jIQGZm5j3n7969W+D9Ok3ZPn7fSdtJ25VVGRBIF0i/52NRVoVZyi0vYpEBkQF7ycCsWbPw77//5vur48aNG7Fw4ULYWsz1b9t5nvDNQMAPCgrClStXsHLlSmzfvh1bt27Fli1bsGPHDvj7++P48ePyPnbQb7K95FLSdex3nkC6g74QxJLu2A+uvJilf0UGik8G0tLS8MILL+Czzz5TkE5LOEGc1vLWrVvfY2Fn3/D6xYsX8d9//2HVqlX4559/MHnyZCxdulRN9Pv2228xZswYDB48GHPmzEHLli3x/fffC6Q76DdZntfie14dqa0F0h30hSCQLi8ER3pRSV1EnktSBoKDg1GlShUEBgYiPDwcq1evRlRUFJYtW4a+ffsW6qZCy/miRYvg5uaGQYMG4ffff8ePP/6ogPzWrVtYsGABJk6cCO7znvXr1wukO+g32V7yS2Xw+vXr+UZ47JWXpFv872GBdAd9IQikF//DJC8waXORAceUAcJ0x44dsX//fuzcuRN16tTB5s2bFXS3a9cOe/bsUX98JDDZygDPffLJJ/jwww8VzBPcmzRpouJMmjQJHh4ear9r165Yt27dPfFt05Njx5Sxx+1XulH98MMPStErSP4eN12JVzrkTCBdIF0+Cg4qA/KSLR0vWemHst0PnPw5ZMgQfP3110hKSsK+fftQtWpVHD58WFnSmzVrptxg5s2bp64Z+5vL4jEO3VzeeecdBAQE4MCBA2jQoIEC8jfeeAOurq7KMt+pUyesXbtW3sfyPn4kGaCM1a9fH8nJyWJNd0DZEUh3wE7lR0Is6WUbDIwfetmXvhQZKDkZuHr1Ktq2bYvFixcreKJPOYGaVku6r9Ddhb7nI0eORM+ePREdHZ0LWXSN4aRQ+p6PGDECb775pvJNJ9jz2ueff67iXbt2LRfWpa9Lrq/LYtvfvHlTQTpdXlh+yqVY1B1HhgTSBdJzPyhl8QUlZXacl5H0pfRlaZSBuXPnqomdBG1OGCVs06pOEKJPep8+fdQ7lKBNv/IzZ87kvlO15X38+PF47bXXcOrUKTWJtEWLFsq//f3331dxaJ0fMGCAWj2mNLaBlKn0PpsC6aW3b4riuRFIF0jP/aAUhUBJGo79wpD+lf51JhmgVXzs2LFISEjA8OHDlasKf8F+4sQJ5V9Oq7qGdLYLIZzLLtpaMumTPmXKFHWe93A1F6ZJFxnCe2JiIn7++WdlkXem9pW6Pvn7RCD9yduwNMuhQLpAukC6g8pAaX7xSNkc+8PiKP1LqzjXRmd9OKmTvul0aSGI01f9t99+U8e6voRznjdCOo8//vhjjB49Ghs2bFB+6bt27cLu3buVrzqt73v37lXrrRP+jXF1urKV56UwGdCQTp903kP5ERlyHHkRSHdQQBOfdMd5SAt7Oct56WORAfvKAP8OSshmOx88eBAvvvgifH19ld85r/3666/o379/PkOHEZJOnz6NFStWKJcWurxwbXT6tjMe/dnpx96jRw8sX75crf7ClWMEsOzbp472zGhIp2uVyI7jyY5AukB6vg+Mo73ApD6O99KSPpU+LU4ZIKQfOnQIb7/9NqZNm6Ymgc6cOVP9lGjq1KngCi10YSGQ0/JO33RdPv7AyN3dXVnSmYb+8yjBivtc2nHChAm5fyU9evSo8nvX8WUrsv4gGRBId2wZEUgXSM/9oDzoZSDXHftlUPb617omdbYlC9kW7kuQNjDKgMUgF4/37PJPo1w2kauw8G+gt2/fxtmzZ9W65/Ql9/LyUr7qr7/+uvIt57rnXAddWzTPnz+vXFl4zEmnTIs/QlqzZo1abpETR2mZpysNf2REYCfwl71n8fHaV+r55O0mkP7kbVia5VAgXSBdPggOKgOl+cXz5GUjjGUiPSML5y5cxtnz4TgjQdrAKAPnIhAeGZsD6o/3IY+NjcX8+fPVSiyEbO1vzn0uoUhLOVd6oYX9f//7H2bPnq1+KlOQfDMOJ4cyPf51lFZ0Y1i4cKE6pltNQfHl3OP1oaO3m0C6Y8uFQLqDApr4pDv2g+voH54H149+whm4cjUa77z3DWbOWoIZn/2C6Z8ttobPf8H0z39R53hegvO1wdTpP2PmrJ+R9QTv+Fu3buVaxWkN1xby+8nnw9xzv/hyTd7djyIDAumOLS8C6U/wAn+UB6m47xVId+wHt7jlqfTlR0t6BnbvPo7mLb0w/6e/MH/hMsz/6Xdr4L7xWJ+XbV4bOXRbLMWMmT/ilRbuTwTplHuBbnmXlr73X16fENJffvll9WdbkdW8dinNffYoZRNIF0iXoVUHlYFHeRGUxXuzLZnYvTsY3fq8jsTkVMQnxSIuIS4vJMYjLjFBglO2QSyOHQlDExe3J4b0x3k26NrCddAfJ67EcTzQsmef3rlzBx999BE4f0Ig3fFkRyDdQQFNLOmO97Da80Vf1tLOtliQZcnEjj1B6NJnLJKSUpGQlICExET1Y5jEhEQkJElw3jaIw7GjYWjcsmQgnb9op686Yb2sPVtS3rL17SCYp6amCqA7KMsJpDtoxxLSu3XrlvuBEA27bL145UN5//6in3GmJRPbdwehc+8xSEq6rqCcf25kSE7IgXUN7bK1Ki/O0g5JsQrSm5QQpHNSaePGjdXSivIs3/9ZlvaR9hEZKFwGBNIdFNL5keDKAfcTfgH3wh+M+7WbXCv5dqMlnZC+Q0H6a0hKSlEQmkQITRJA18qK026TYnGU7i6tSsaSzvdvo0aNBNId9Psq34CS/wY4Sx8IpD/GS4Qz/g8fPvxEQ5m2w6AEZn5Q9RJfRgE0wnR0dDS4LBjv44QR/Uc84z3GuAXt8wPCv5MxjYKuF3QuKipK/QrbeI1p8IccxnMPs3/p0iW1TNmjlDkyMhI3btzIN6R38eJF1QYPk6fc43gvVbq77NxFS7rV3YXPDyFdu3g4LaA6i7X8fvVMilOQ3rSVR4n4pAukO977Rr4h0qclIQMC6Y8I6enp6WqtW09PT7VO7oM6jSBLqLYN/CW08c90BNbvvvtO/dmO+0aAJYzyBxmEav704ssvv1TATHDl2rrHjh17IHCfO3dOxWG6K1euVL+nJuA/qPz6Otf2ZTx9zC3XCOZ5/uDDWF59D8+xzLZhzpw5Ki3mT2WFgeDOeuq4tlv+SIR5cZKMVgx++OEH/PHHH4XGsU1Djh3rJZudnYldCtKtlnT6pCcmJijfdG4F0p14RCEH0psIpMv78RG/8WXxO8FvaUHf4LJYFylz/u+0U0E6hZjQ/ChwqgWGcfnR/+mnn+Dh4YFZs2Zh0aJF6m9yhMbCHhD+JvrAgQM4fvw45s6di2XLlqn9jz/+GPxpxdWrVxV4Mn6bNm3w66+/qrSM6RFq+aMMwuxnn32G/v37q32W54MPPgAVBv5OWpfVdst448aNU3+7Y7qE3datWz9UO2iIpn87667bjukMGjRI/fKaFn0e21rmk5OTVX0J0sbQtWtXMPj7++cGtgcD+8dYd9bFbDbDxcUFb775poJ5tkdMTIw6HjFiRKH1tm0HOc7/8Jf19si1pPehT3pyHpwnxSMpMV4g/X6WZke/Rkg/fApNWg4VS7oTQGpZf5c9Sfm14VB/h58kLYlb+r6RTgPpERERWLJkCaZOnYqUlJRHAjtab7dv364AuVOnTurvcnt274a3tzcGDBigfhdN+KYLTFxcXC7IUuBpQaeVODAwEK1atVJgz/voPsJ7CeXLly9XYNquXTv8+++/+SCVeTNP/smOgDx69GjMnDkzF4oJ6m5ubqBl/uTJk/ni6geOFuqaNWuqfAjStEATurmv4fr06dMK/G0BeevWrcpi3rx5c2zatEmB+okTJ8D2rFOnjoJs/vqa1ny2AV8YOl8Ct1Yw+AttKhoMBG7m/+GHH6rQo0cP9ZttKg9sE9sysE2Y/4ULF9Svszkhi8rN22+/jcmTJ6v72Q5agdD5y7b0vXCKqk+0T7qaONpntFLuEhKTFJgT0JMF0p1bScmB9KatBNKL6pmTdErn+5RLL9avXx80itl+O6XPSmefPUq/OAWkE4gJm88//zzKlSunQPBhGoma6X///Ye///5bAX6XLl3wxRdfKFClm8mMGTPQt29f9OnTB2+99ZYCaN5rdP/gQ8PlkWglnj59OuiiQjDfvXu3gmSub0rY530a0o1l27NnD6pWraos94T5Fi1aYPz48QqOeczwzjvvKOWD5w8dOnTPg8pfULPuv/32m7qf1meCLuPSmk3lZezYsUoRsbWG03pNxYAAvX79erz00kvK5YagP2TIEDVKwBEBXmfZjHXX9aCC8sYbbyiXHbrtDBs2TNWBowsMHTt2xP79++8pN+MT+qmEcLSAVv1PP/0U7du3x9KlS9GvXz+4urqqenBkIyAgIFdB0HnLtuy/pArqQ67ukmHJxLY9QeicA+lJCcnKJ52QLpZ0J3Z14ShBrk/6k//MqCD5e9A58Ul3zPfOg/q9JK4T0vkzo0c1PpZEWSXPR38unALS6ftNOKxQocIjQTqFf9WqVQpk+WOK7t27Y8OGDcpiTms4gZjwTUCnJZowvGXLFmXR1Rrt2bNnleWbriw///yzSmvo0KHo3bu3UhwYn9ZgCu+rr76qLOlGQd61a1eulfmbb75BxYoVlU86oZigzMD9efPmKT9zwr/Om+kQmmmpnjZtmrqP9xN4GzRooI5ZZsb9/PPPsXHjxnxxGZ/W6k8++USdZ7p8Gaxdu1aB8969e9WLgS8Huv60bds21zpvrAPvo6bP9AnSdNfx9fVVbcn2rFWrlmo3Yxy9T8CnxX7MmDHKF519QJcf1oP7DKw//fRtfeZ1GrJ99BdDaW8zbUlXq7vkQHpyQlLOxNF4JCSJuwtHl5w2KEg/gSatBNJL+7Ms5Xuy97OGdBoDpS2frC1LY/s5BaSz4enXrCE9Pj7+oYSZUGoE3hdeeEFZrelbzkBXjsGDByvoNd5n7Gj6itPSToikDzet8Vwakfu0XtO6/u6776p8CoJ0pkWfd1q4aXV++umnERISAk4EpQJAn3eCLxUGY756f+fOncpvnCujMA0GjgIQbvU999tSgdCQzvsI9xMnTlS+8FRMdL0J6VQGbNuMcQjpbCeOStB1hdZvWvP1ca9evZSrjm05WGaOEvB+loNuNhx10BNHJ02aBAZb679tOnLseC8u9mnuEoy5kG6FUgK6QLoTA7qypHMJxhNo3NIDVOiK+x0glvTib/Pi7uOHyU9/Hx/m3se9h2zD77JY0h1T5pwO0k0m0yP/rpkPGv2dhw8frqCabi6EQwIjHw76mtMvu6CHjMs10mWFf6DTLjGESoIrXWOY1oMgXadL0CcIc0sXE05I3bdvnwJuWsP1fXpLKzrhlvfpCaDcUkkgpLNOPD516pQCfh3PuOXEVB8fH+WPvnnzZrz44otqZIA+6GwDKgy8n9ZswnRBkE6FhpZwutswMG/tR09feioxO3bsyAV+nT9Xj+HoA+vAQGWEbUlIZ2C7EeJZTwI9r4tfumO+qLRM6C3Bi+4uRp90saQ7OZgbRw5y1klv3MrjnveiliF7bgXSneM99CAZ4khwaGjoYxuSCoJ8frON5zlvjd9YuueSMzh/zjg3jN9EnpNvY9mUSYH0h7Cy0F+acEhgpPvJmjVrFHDTp5tWZk6KLMynmtZv+sMz0JpM4CXs8pfRnFBKH2vCLh+6wizpfBEQROm7Tcjl/UyXw1u0TDdt2lTlb/vCoIb9119/qQeXfvD0P1+xYoXyMW/WrFnu8ZQpU5RPOx922zQI6XTPoSsJXX/o207XIZbXy8sLjMs4HFUgePO8foGwfJzMQoCnzzhdahjoe0/r+VdffaXagZNa6Zv/yy+/KPhmfCoyLC/T0JDOdqP1nS497A8qSXTd4T4hn/dduXLlnjrY1kmOy+bLythv9/NJT6Sri7i7OK+ri8EnvUmroWJJf4hvnPHZkv2iez/y++zn56e+UfdrV4I3v/H8BjOEhYWpkWMu1kBjFZde5pwwuoeSQ7jV6envLbdkChrBaLTS12nQ4og9R7v1vYUBO6/roOPbbmXkuujkw7ZtCzoWSH+IFxh9wd9//30FkhR2untwMif9uTmBkaBKEKXg64dANzbhnQ8Uw8CBA9WkSfp0E1ppfedqM0ZIJ4TquMYtH3b6fHPpQQ2kfCA5eZM+2rb5Mi7LwweKw2As3+LFi9WkVY4IEOw5YZTlJ/hzny8JY57cJ6RTEeFLhGnRJ50KAvPji4Nru3Of9SG0G+PTHYZuOLS2E+x14MTRCRMmIDg4WF2jzzkn5BKyOcmX+TBN7aKjIZ0vLvr8E8oZmA7z5KgEA60WXPXFWAbZL94XSnG1d0E+6Yk5q7sIpItF3Tpx9ATkZ0aO+fwX13vmUfPhN4gWbT3aS39xLnSgV2fjN5mB3z5avXX6PEcjFEeD+U3lN5lGq1GjRqlvJZcw/vPPP5XRjSPWHEXWcY3ffhqp6BJL0OfKcvxeMl1+w5s0aaKMeuQPzuniKL9OQ2/5jaaLLNmkoMBvOpdipgFQx5GtfZ8xp4N0ru7CSaBGwaLrBqHPeI77hEUOG1Foqc2uXr1aWZRpDeaDQCs1LcwETA430Y2ED6UxHT5ATIeBkzAJ5dwn9DJw4igBl3H4MBcE6bQmcyUTuoYwLl8AdJ2hTzshlcsWGvMsbJ9lYeBDRm3b+HAb943xCci09us6ENLpZ8/7Cf/07+c+60WXFmNcrmRDVxoqGLQI6MCJo1QUeMwXSO3atVU78gXD9JiXLg+3GtKNaXOfbUAFh/v6ftt75Ni+L5CSbF9bn3T+zEj/0Eh+ZuTkoJ7j7lKSE0e5ghbf1SX5jEjexff+43eLI7s0XunRc7qZ8LvPkXN9btu2bWrhhG+//VZ969hH/H7x28/5YvzGcmGKI0eOqFFvssXly5fVd5cwzxXXyCDGviXTcJSfnFKlShU1Ys70aXzjCDfP84eAXLCB301eozJhTIP7NORxvhjzLiiw7DVq1LiHoWzTkeOikzungXS6XZQvX16t7kINk0LEB4MATCHu2bPnPX8Q5UNHiKTwU0Ombze3HDaqXr16PgsuHzC6svDhshVQwjgfiNdff139CInDVQy0SPMh1nE6dOhQ4ContNiPHDlSaa8sE0GWDz5dVjiURms983hYUNUTR40wzDIbNXtdB2rsBOHo6GgV6tatq/zhmZeOz31axo3avW5fvlTYZrr92Ia0/rMtWG4ev/LKK7lp6njGujB/27R5H19W77333j3trcsu26J7UZS2tizIJ906YdT6p9EkbVU3+inLvvO4wKh10k+iSUsP+ZnRQ4wWl7bnuyyWh99xuoPSLZRgTTdRzjuj2ybdO3mOoK4XnDD+HFDXl3PMuJSx/rZy6WLGo0GL7p0c7S4I0skEvIeGQ0I6R8gZCO+MRzdXGhDpasoykEf4jTV+Z1kGQjrnvdFSXlDgQhXkqIKs8LoOsi3a765TQDp/gkPtln/Z5CRPPkSc2EMBJZjSF5ygaOvPzOu0AmvA5MNGYKTFmNokIVODJmGT+3TJ0ELKB41uJpzoSWs749FdhudodacFn0ukEdj5IyBq0LTa6/jc8sGjJZkWaVpleEzLO4ev+EASXun2Qf9upqEnqbDsrCP9t6lkaBcRblkHtgPz4jXeQ3cc/lxITwTVZaAywBcFV1ZhoGsK20OnTwWCLxH+oIj7PK/j6i3bmMoQ7+NLgH8bZfn50qBLC/3l6eZSUFymwcmh1P51enpLxYDXCoun75Nt0b40SkN7FuSTbrWiJ6plGK2TSK0/N3LaZQidWSlJisfRwwLppeFZdZYy0ODG7zG/a/wO8x8qdJWlMa5SpUq5/zChSwm/oRrE2T78hhGo+X0ni9BiTZbgn8K5KARH7OvVq6dcZQqCdKbBUX/+ZLBatWrqe0s+YKB1n/PZ+P1t2LChcqWhiyy//7bfTrrZUKEorM/IFIT0glxjC4sj55/s++sUkM7lCgnbnHjBQOu4hnQKKdfvpjDzoSlIoHgPA5c85PARl1EkcOvzBcXhOaZHwOZfNjncxXz4IOqHk/EJEIRbd3d3pUFzWEunx3vp4kIFgBo5J6xSUSDkMx7vo6sLH2KWh2ux06dNW9Xpn81j+rDzgdSBWjXT4Hl9jX5qfHD5QtH5c8thNd7P0QfmRfccpsuysw3p29a5c2dVfmrZPG+Mb9yn5YDtQWs8+0C3H9tDt4nxfr1PRcF2eI/X+PMmlud+eeo0ZPtkL4rS1n6F+aTTgp6ckKiCWNOd2OUl52dGYkl3rOe+tL2HjOWh5ZkunvzOEbDpQ86RXhrBaN3W1mv9vTN+87hPSzz5giBNgxtH5wnpdFPhIhU0MjI/Qrp2kTXmz30N6eQEfms1L/BfJBy95ig60yKPUBFgvsY0aH3nP1wK+6YKpBf/8+QUkG4UwifZp0BTSybgnjx5Mp9wF5Yuf6TEh7cgodeQyi2hlSBufGg4hJWUlKS0Yk4coYJBq7SOZ8zz4sWL6uXAh4hp6Htoqea+8d777dveS62feeo0jf7vOg8qArYW+MLyYHocRdAvLJ2Gbb7G+FSwGM94jvvMlxYJ2/NyXPwvkpJoc1ufdP5xNDn3r6NODKjObEHXdc/xSW/aaqi4u4i7S7F9Izhhc+bMmcr3m98mwjq/6xwl1986viu5r7+p+pgLQdBYxrkMhG0GQjot4Awc8ef3nJDOeWL6ncu0aJjjN5jwzkUtaFjjSD3zoJGvUaNG6pj38Ry/40aDoU6LyoFAeun6fgqkP8ILzPbB0oJ9vy3j3O+6vlbQfTx3v6Dj6q1OwxhHX3uSLR9q4wvlSdLScY1l1Pv6mmxL10uiNPbH/7F33n9RHV8fX0ARe4kRu2LXJKYaEzX5WhF7bMTYKzHWWNAYY4uixhJjYm8YwV4pFrpKZwvNSlnKAir9P/g8zzl3Ly4rliiw7DI/zGv3trlT733PuZ85U5YmnSzoZD1P0aYiRf8rpC7VdLBSBTTpYuJo9XqOyRpugm2aX0agTDJP+gpMEhL6L59DEk/y8CK/s+kZS/8JqGmumfxOJOcQBOjkUY4kqqRnJ+knSWjl5zKdS3JRmvBJ8k+CdJLekNWcpLROTk78lZ3+U1zkaYZgnv6TRMbw3S4gveq1WQHp/wHS5Y5k2LHkjlIRv3JHfdlvRdyzrDgN71/WcbGv6nVsS6+TsjTpaanSpNFkgnQtwbrQpFfbQYrQpJdAnKU/C6pK/shyTZBNklGCafryTR5SyDEFraVCxynuXsy1AAAgAElEQVTQPnLbTB5XDBcdonzQIoWkSSfpC0ldSU5KwE2ATp7cyAMcfVmm4+SOWX43kxyVZK9kuSdNOlnxyYUjSV4I+kmCQ/PBaE4ZzTEjYCcpjGxZp3jo/kLuUvXe5QLS/yOkV5UHgkhH1etMok4qr07K0qTTZFHylZ6URpAugXq1hVRZ9lFdf/WadCF3qbw+Wd2ffzT3jSCZfmn+Gv2SJJMmfNIaKaQ3J+cLtF/2QU7ez6jc6JcAnuCd1jCh+WsE6eTMguaide7cmWW2NBmVLN9kkaf4ZCs4QTb9J4kMeZ6T4Z+kNzRplCakkpSG1lohRxovqyuaOEqDBAL8sgJZ8MmNNcluXhaH2F++fU5AuoVCOmnOaEa46DDl22FEeVad8jTWpJMePTU1Dclpkr90AnUB6dW0DGQ/6cIFo3gHVNI73hiYCcQnTpzITh1IekIe2MirGf2nNUYM3yWkZSfnD+Qkgazc8nohtBjgoEGDeCIprdNC66XQfShu0qsb3pNAnSCdPM+RhZziJ092ZEUnDTtJcMiqTp7uaE6Y4f3l/3RvOofkOGUFksrUqFGDpTvyNeK3Yt+JAtIrqQNXdkMmvRutTFbZ9xX3q9gOK8pXKt+Xa9LJgp7MQQB6NQV0+npQBTTpNFlPLGZUfZ6HsjWbnEXInswWLVoEWqWTjpEPdIJlahfkkpn2yc9zgm2yXJOVnfaTJZw8zhHUk/c3cnlI1nWyspNlnTTlNJGUYJ/Op0DyGrLEN23alCGdQJ3iI+kNyV4IsMkSTmuu0OKDhk4g5HSQRxmCc1kGQ+kyDHQ/cispXDBWXrsWkG6hkE6rgpI/crnzid/K61SirCu+rMvSpGtTUyCFZGhTk4UVvbpKXRjShZ908Ryq+OeQYRmTxps8udBiQbIGnDyoEPASRBPskkxl48aN7Luc9hleL/+nhRfJ2k3xkUxFlsSQe2aCbfIuRzIWAn6ajCpfRx7iSLdOx0gKQ5BP65+QC0eKj6z1FOg/WeTJl7t8rfxLho2yPK/JAwE5H/L54rfi25iAdAHpL3RU0fEqvuOJMn63Mi5Lk04eXeglQ4CeJiC9eg9ShJ908Vyv5Hc7SUvImk16dLI0G1qjDSGXjvn4+DC4l/UeIJfHBPqk+yawNzyHJouSpZ6CbEU3PE7gTQMDctlMgE5WfAJzQ2s4/aeJpbSKuOG14v+7vZMqqvwEpFdyR66oijSOl2aQC0t61ex0xnUltt+unow16Sla0qRrkaoVkF7tpT6kSfcPgyknjgoXjG/Xr831eUggbpx2Gc6N97/pdllxvu7asu4p75N/XxeHOF512q6AdAHpLzxYRAetOh1U1EXZdVGWJl2eKCos6dVYiy5LfIQmXTzXLfTdLt4JZb8TLLVcBKRbaEcWlvTq1ZEt9QH1snwJTboA8Vd+LRB+0gWkW+i73fiZSPKZ9evXv9Rji/H5Ytu82EBAuoV2ZAHp5tURxYPzv9VXWZp08pOuTTUv7y7kao3CK4FTtg6X0y/dj3SrcqjMe1favYSfdAHpFvpuN35X0GTUVq1agSacGh8T2//tvVIVy0tAuoV2ZAHp5t85q+IDoyqlyViTLvlJp5VGzcMFI00w27dvH1atWsVLh5PXBlqxMCQkhH0p03LiFMglGi2CUh6Ae+PGDXbDRvHSsuXkko3uHxERUS7xl0cayyUOvSbdQfhJF+Bmoe94+VlMkE4LJtGEU3mf+LWc97+AdAvtwALSLaeTigfui3VZliY9LYU8u5iPJV2tVvOCY40bN0ajRo2wYMECXlKcVi0kn8a0nwItfhIVFVUuEE1Lln/99dccL/k7puXGGzZsyEuPlwscl5O1/53TIjTpAtgs9N1u/D4QkP7i+8G4jMx5W0C6hXZkAemW3XHN+aHzurTHx8fzctqJiYklC3UYezkgTTpZ0i95h+DzfhOh1ZLUxfz8pN+/fx/W1ta81DYtA05wSjKUK1eu8D5agpss64bQSnmlbc6z/r98nXzM8Hzj/0OHDuW4yZL+0UcfQaFQ4Ny5c6XuQZ/Oja8zq23SpAeE4b9Y0svT8wW1XbGYkXgGv+5ZVx7HBaRbdjsTkC4gXVhcLLQNlMcLwBRxkP/eq1evspWZ5Bg7duwADTqzsrJKtdWi4gJc8Q5Br37OrMc0Rz/pMqQTKJP0hUCYIN3Ly4vhmfbfuXOH95HfY5LE0CImNFGMrn3w4AHvoyXHyUczLYAyf/58XlpchmrSoNPiJmSpp+tpmXGCfzr3448/5v+00qB8PlnyaZXCLVu28OqG8n6z+mVID4VDdyfQgK6sdkxQTovBkM9oT09PnnhHPqSNB4RlXfu6fbQ8u4D0ssv9dWUnjv+3chOQ/t/Ky9zal4D0lzzAza0ijdMrLOmW3XGN69vU27IVsrx+aVnsoKAgbNu2DU5OTrySHi1lTRINglGC06KiAlz1CsGX/b5nPSb5SSdQJ026uaw4SqBdo0YNBnLKKy3jTeHkyZOlIJ0WSunduzd2796NGTNmoHnz5rxcOA1oZs+ezUuBE3zTIiZdunSBg4MD/P39GbzJQt+5c2fMnTuXwVy2npcF6eHh4Rg3bhwWL16Mv//+G1988QUMAd58QD0FgQF30MEA0uUFXeLi4nhlSJIU0eCGVnWkQRF5yShPSG/bti0v727qvinub9nvAgHpll2/AtIFpJdpZRIPdsvu+OVZv7Ty3S+//FLuwdXVFcuWLcPnn38Oe3t7Dm3atGFN9ew5c7BqzSr8uHANvujrzNKPVG0qKCSnSRNHZb/pVRksCdJr1qzJQE6TOb29vTnQZFGyosuW9KVLl8LW1pbBmwCeJDIE5SRvoWXGaXvAgAEgmcXw4cN5myzzjx8/Rs+ePXkgQBZ5sqp/+eWXHG9ZkE4WdBsbG04DXUt69UmTJknlW1X05m+YDpK7dOgxGNlPcnDr1i3+MkBlPG3aNB58yIMWGvDRqow0MKQl2CnQapH0S/veJpBkiyzp8pLu5dnfRFzi2WzYBgSkW3Z7EJAuIF1AuoW2AcMHeUX+l4Fkz549KM9AoLpz504MHjyYLcdkPaZAkLlg0ULs+HMnXNdux2d9nFkOQpr01NQUJKWlIEVLoer7EjeEdJKikJcVCsaWdNKo06BF9sZCcpWvvvqqFKRPnz6dy8HZ2ZkhncqOrPIE93Z2drwMOA1YZE26MaSTzGbgwIEM8IcPH8a1a9cY0Ele8yZa96o2GPLxCoR9u95YvHQphg0bhg4dOqBFixbchshl3ZgxY7BixQosX74cK1eu5P/0Kwc69rbBxcUFnTp1YtivyL4n4rZsQHuT+s3OzuZ+S7D+JueLc8yrzQhIt1BAE3IX8+qI5vzgjI2NZQB6G4vjq64h6ydZ0sliTEBFFmMaBNAkx4TEBDzNe4rL14LxeV9nlnWQdxcCxaQ08vAihaoGjsbpMYR0gmb5OAGyoSWdrOAE4QSUsuWc5C90vrxNFmICbRnSSctPwE9AT5D+6NEj1u4TsJalSadrKU46Rh5l6BlCkpm7d++aH6Rrk3HdNwTNO/TBHzt3snynV69e/DWGBnrksm706NHs3pLa1N69e0sNMEnD/64DTpqYS/IZc+7bIu1V+z1C8kL6WkNf4OhZKuqratfX29SPgHQB6aJjW2gbeJsHwttcQ5Z0shq+zbVlXUOT7o4dO8aTFgmUDh06hMDAQJCshl5IMvgUFhfiilcIvtBPHKXFjFJTtUiWAd3MLOnyxFECb+OJo2SZJe06ac4J5kmSIkP6pk2bGKxlSJ84cSIDPoE2DQKaNWvGlnUCfbKI9+vXj7dlSzoNBmjgQ1KYqVOn8jECfXnRowsXLpghpD9GcGAkHLoPwZNnuaA2RXmk9kTlNXbsWLauk494migrS1volwLJXd41yO20rDYu9lkeTIk6FXVaEW1AQLqFApqwpIsHRkU8MMqKs7whnbTQZBmieMk6RLBkfF9pxdFCXPYKQa9vnHniKC1mpE3VIlWbIgWWv1RdyQtN+iSLOQE3BdKdJyQksK58+/btJZZ0GqSQ3pxgetSoUeyphYCdrMHXr18HATwdIxkLadL79u3L2zTRlkCb5BukeyfwJq8wpPGn8ydMmIDWrVuXSGPoXJLV0D7yz04TUknuQZ52zE7uok1CSFAUOnQfCmor1H4Imqk9kUcXmpRM5UoWdBqEkOcc+pIgT3w2bm9iWzxPRRsQbcAUbUBAuoD0FwDIFA1R3NN8H4DlDelvYoEk8CJLOvlJlyFdy5BOCxqRdxcC9eQS+YgsI6lKvzRhkSQ95GWEvNaQDp0gW7b6rl27lr2PEMiTdxea9Ei6dQJMOp8C+VA/ceIEx0GWeLqWPMBQnOQFh8CbVjYlOKf46BwCUzq+a9cutipTPJcuXWJIpfPJGwzp38nKTPMCaDBhfpCejJDAaDh0H1rm802WCdCEUSpzWumVvtSI55D5PodE3Ym6s8Q2ICBdQLp4MVloG6isB1Z5Q/qbpruouKiU3CUllRbgkRY1kvTpNJG06lrSCYhJJ05fDigkJSWVSEzkffJ+OkZQT7+UJ7qOAsVheA5Zgw236VwCbDqXYFSOl+KhIG/TcflcioNkMnQ+xS/vp1+zCdokBBOkd3N66fONQN2wrRlvGx4T/wUAijYg2oAp2oCAdAsFNCF3EQ+UynqgmArSi4uL2E+6vOIo+UlPZVBPhTyJ1Gyg0pwA2BzSqk1CUMCrIb2y+oe4j3gWV2QboK9BNP8kNze31KCzIu8p4q68Ni0gXUC66NgW2gYq60FqCkgnuQtb0n1uQ4Z0CdD1lnS9O0YB6WZk/S5P+CdID4yAQzdH8XwTzzeLbgO0EvMHH3zAcy0q65kv7iMg3aI7VWU0cGFJr7xOVBn1WZXvYQpIp6XeCdIvG0D6c016krTiaBXXpIsBRAUOIBjSwwWkC0C3eJYgSKfJ3unp6Raf16r8HqyotAlLuoU+xASkC0ivqIeGcbymgHTJY0cRrno/t6RL3l3IP/pjpBCgC0g3Hw15eVrRKS5hSRfAZqHvduPnr4B0y37XC0i30I4sIN2yO67xg9qU26aAdCm/RbhmBOlknU5JS5IgvYq7YBSW9Aq2pAdEwaFb2d5dTNlfxL3Fs7k824CAdMtuTwLSBaQLi4uFtoHyfBG8Ki5TQHpZmnS2pNOCRiV+0isQAsvb8iviK1+rv7Cki+d6NXmuC0gXkC46uxl2dmFJt+yO+yporuxjpoD0l2rSS3ylC0Cv1pZ6oUkX720zfG+/zbNbQLplv+uFJd1CO7KAdMvuuG/zMK+oa0wB6WVp0kv5SRdSl/K1TJubpV9Y0gWkW+i73fg5LiDdst/1AtIttCMLSLfsjmv8oDbltikgXcpvaU265CedJg0mIy21aq82Wq2t3JUB/ATpQpMuQN1C3++Gz3sB6Zb9rheQbqGdWEC6ZXdcw4e0qf+bAtLL0qS/6CddSF6q7WBAWNIFoFvou934eS8g3bLf9QLSLbQjC0i37I5r/KA25bYpIF1o0sUA5JUDEKFJF5Buoe9242e9gHTLftcLSLfQjiwg3bI7rvGD2pTbpoD0sjTpkp90LVK0KRxeCXGVIbkQ9zCdLl5Y0gWkW+i73fhZLyDdst/1AtIttCMLSLfsjmv8oDbltikgXcpvaU06QTqBOS1kxIsZCUg2HSSbuuyFJl1AuoW+242f9QTpXbt2RWZmpqhzC6xzAekWWKnUiQWkC0g3fphX1LYpIL0sTbrwky4kMCVfT4QlXQCbhb7bjZ/jeXl5OHfuHHJzc0WdW2CdC0i3wEoVkC4A3fhBXpHbpoD0MjXpqWnQckiF1tSWXHF/01rxhSZdAJuFvtvLepYXFRWJ+rbQ+haQbqEVKyzpAtTLephXxD5TQHpZmnThJ11Y0oUlXTz3KuIZJ+IU7cpUbUBAuoB0MQK30DZQWQ8VU0C6lLfSmnThJ11AeilIF37SxbNdPNtFGzDzNiAg3cwr8GUgJizpYuT/srZR3vtNAelladIlP+kkeUlFmpCbmFZuYuryF5p0AWcW+m4v7+e3iK9qs4KAdAvtyALSq3bHs6QHoykgvUxNekoatBRShSa9xKJsalg21f21yQgKDIdDN0cBqxb6jrOkZ+i75KWgoACenp5i4qiFtnMB6RZUsdnZ2bh//z6/lPz9/fHFF1+AJpRQCA8PFy8rC6rrd3mol/e1BOkdOnSo1PZVliZd+EkXcpeSwYmwpFdqfyzvZ4qI782NTDk5OejXrx8yMjJEnVvgO15AugVV6pMnT7B3716GcrKkE6TTw+7Bgwc4efKk6MAWVNcV/RJLTk4GBXmQp9FoQBabsrwI6HS6N25fhYWFSElJAbkNe/c8lNakCz/pAtKfQ3oygoQmvRz62JvD4rv3Z3GvtylDev62atUKWq1W1LcFvuMFpFtQpRJErVmzBnfu3AFZ0j///HMQFNG+wMBA0YEtqK7f5mH+Jtd4eHiABnvBwcEYO3YsL5BBYD5lyhRs3LixTEin4+Sjl9oYtTfa9vLyYssO7Xv48CEePXqE8+fPY9myZRgxYgT279//Tu2RLOmFxUW47HMbn/ebyC8oyU96GlK1qVIwldRC3Nf0enhhSX+n/vUmzwpxTtUYVAhIrxr1UFH9QUC6BYEbwdGZM2fw/fff48aNG2xJDwsLw4ABA8RqZBZUzxX1MKB46bMpfYW5fv06WrRogadPn4JeAk2aNGGwzs/PB8lbzp49+wIEjBkzBuvXr+fzvvnmGxw5cgQ7duzA9OnTuV3SAODo0aN83M/P74Xr/0u+ytSkCz/ppofjqjJAEZr0d+pf/6UvinNNC4kC0k1b/hXd/gWkWxi80edeWiLY1dWVIZ0AadasWWzhrOjGJOI3/4dFu3bt4Ovry1bxNm3asMTl2rVraNq0KX7//Xfs27ePLeqLFi1CUlJSKcs6tTs3NzfQwJA06n///Tef279/fwZ7Op9eKGSpf9fV8crSpAs/6ULu8lzukoSgwAgxcdTC3m/iHfPiO0ZA+otlYkntREC6hT3EyJo+atQofPTRRwxKDg4Ob6wXtqSGLfLydg8uai8klQoJCUHr1q15cDdz5kwsWbIECxcuxIkTJ1hORZIqejlQe5PLunv37iBrOW3T/+PHjzPYDx8+vOQcOp8kMQRT8nVv/1taky78pAtIfw7pQpP+9v3q7Z4d4n6mKTcB6aYp98pq7wLSLQzSqeFs374dzZs350DWUNIDV1aDEvcx7wcGWdJv3bqFoKAgtGzZkicd9+nTB3FxcQzvBNze3t4M5wTbhvX94YcflgnpH3zwAXbu3Ildu3ax/IUs8hRPdHR0Kcg3jOt1/8vSpAs/6QLSn0O6sKS/rg+J4+b9rJbrT0C6ZdSjXJ/GvwLSLRDSIyIi0KxZM9jb28PR0VFIXSywjo07cnlt06DOx8cHpBmn9kPyFdKWE5CTRGXGjBkYPHgww7WhFZ3u37NnzxcgnTTqX3/9NUtoSJ/+2Wef4cqVKzh06BDu3bv31pAua9KvGEwc1aZq2U86TSCVPb2UQFtV0UqLdFSObl5o0ksNoMvr+SDiqXpAKCC96tVJefYTAekWCHA02Y88uxBkbdq0STysLbCOy/MhYBgXQTl9eSFdOg30CNbpJSCfQzIXkr7I24a/ZDE/deoUA323bt1YGrN8+XJMnDiRAf/cuXMgOQ21Two0CdXw+v/+vwhXvWXvLulIS0llOBeQLizqqcK7yzv2LcsGn//+rKm65SEgverWTXm0MwHpFghwZOFcvHgxy11u374tHtYWWMfl0fnLimPp0qXYvHkzfv75Z7aAb9u2Dbt372aZCklW1q1bx5Z0WjjL+HqaODpnzhz89ddf7Bnm8OHDmDBhAgjU6dzLly/zPAlqn8ZWeOO43mxb0qT36uuM1LQ0pKcSpGtLQmpqCl4fBNBa5NcGbTICAyPRQaw4+kI/fbO+ZdngY0llICDdstuqoriYJn6JYGllcOHCeXzySU/k5BBMyZP7RD1bWj2/mJ93e2ANGzaMPQORR5cePXqwu8TTp08zXJPv8w0bNrCshTy0GL/oZO8utLotTV4mXTtZ1Mm6TucSpHfs2PGF64zjeZNtWZN+xfs2vuzjjJQ0HbRpKXr/6GnQGshKkrWpSNFqkcpyGJLEGITUVD6XzhfBcsogOS0ZAUHh6Nh1CEga9SZtyrLOKUKReK9XC7YhSKf5Q2lpadUivy++8yybaxR/HzoPESyvDDa47ccXfUbgz/2nsWf/GQ5/7veECJZYBh7Yd9gTT3KLUFj0bkAydOhQtpyTHKV9+/Y8iTQhIQF2dnYseyHvLl999RW7ZjSGmq1bt4LOpf00L4K8xJCHGFq5lPZdunSp3Czpsib9qncwuncfjq1/nILbjuPYvNOdg9sOd96W923hbXe4/SFCtSiDHcexbOVudO46GJK7znfrF8ZtvSpvU35TtTrsOfiv9Ow/cA57DpzDXwdOi2BpZXDQE9v3HMV7LbvBbdcR7NnvKYKFlYFiseufEMHyymDRil2YNm89Fq3ciUUrd+jDTtB+ESyoDFbuxOIVO/HJ598h8X7aO1sNyZJO/s1JjkKQTtZwWjG0Vq1arCMnF4vk7YUmkRpLVlJSUkrBO/nnJ3/9MtDQiqMUZ3nKXeISHmDmrBVYvmIrfl7php9dt2KJPix2dcPSlW68/fPKrVjsuhVLV27Fz3TuCum/2LbM8li2wg0LF2/CspWbS9qf3A4t/7cI3t4h+LL/TLgu/A2uC9dJv4vWwVUfVi1cBwqr6ZjBfvm/OG7a8pHrQf59eX2sxcoFazBt3Cys/GkNVi+g+n55qO7HjcumostDvp/xfYy35fOMf+k8RXBYAkSw1DJIRHB4HILD1QgO10j/RX1bVnun+g1LQDuHflBqHry11ZBcLJJfc5pwTHBNFnOaOEryFtKYE6QfO3aM5zqQrGXu3LnsoeVlwEMrkk6ZMgX3798vgSSSvZD3mPKD9GI8y82FMlaDGFUsVJo4qGLjERMnhWhNLGL0Qaku/V9sW3Z5qKi+1bFIuHdfL/uoTpb0Qpw65YW+/SZDddVXH3yguebNQX3NF7FXfRF31RcJV3yhueYL2qf2ko7Ttjkef9f8ve76yjxO9UH1INeNVB/eSLhCdSTVl3Tch+uu7OOvru/X5aeqt4fXpd/w+JuXp1S2ZZfnq+vD+B50/7irFHwRp+9ncr+Stp/3N8NrqV4N76/QZhVBBEsug0JoswugzSrUB0vOa/XLW2p2AVJyCuDQaQBiYu+VAPHL4Pll+7VaLS5evMggTl5Ybty4wRBOOnTy9LJ//37cvHmTdeUE8ydPnsT169dfsKZT/ATm5G6RVh41vB9BOsF9eUK6FD/JfAoZxkiHW6APhcVFoED7KIjt6lMepFvlOqd2UVTan79hm7S0/yR1KSguxEkPLzgNmomiGA0KlTEoUkajWKXkUKhWolCtQpFKjSKVBtJ2DP8W6c8pVqlQbEbHi9QxkNP+Nvl73fWVfbxIJdVPsfJ5/RSplaBA+Xvt8deUx+vyU6iu2u3hdek3Pv7a8nrH8qb+VKiW+pPUz2JK+httF+mPF6o0XIeUPqkepT5J/U3uj4bXU30LSBeDFDFIM+M2kJJdgOScIrTt7IjoWEkP/jbgQX7QMzIyQF5bcnJy3jiUda+srCzEx8e/4J+fXDvGxsZWAKSXtpISqFQ3HXJZ9SD2lW4X1aE8aK5GCaQPnolCgnRVFIqUUShWKjnIAFaoUoOgQdqO5t9iVQyKlRQIHszneLGKBiFS2t8mf6+7vrKPM6gp1ZAgnYBOqh8pb3oAfOXxV5fH6/Ij308u06rWHl6XfuPj716e1HdeXh88MFRJx6X+E63vRzGQgfxN+hvVN1+vb89U3wLSzRjQxBeQ6mc5N65zGdLbdXKEMv5elYFTY706AVL5W9CrH4RVB9AUeXy3dl1YXAh3D284DZ4BAoMCdTSKCGBLrOR6gGNrOVnMZWue8S8dE8dNVj5KFYopvKx+Xnf8heuqeX2+rrze9bhhf9IPiEvX3duVv4B0AenCkm7GbYAgPSW7CO07DYEq4cE7TxwVgPRugCTKT5SfqduABOk+cBo8nT+hF2ii+RM7AwNZA9lK91z+UhokjEFdbIvyEW3AlG1AQLoZA5qxVVVsVz/LOmvSs4vg0NkRGhNBOrlYXLhwYSn9ualBRdxfwHJ1bAOyJv2Ehw+GDZ7GkE7SBfrkztIFtqgToAtINyV4iXsL8H/TNiAgXUC6sKSbdRsoQGpWETp2GgpNwiOTWNJJf04LH1VHKBJ5FoOBqtQGSJOeX1yI454+GDFomjT5kyFdBnMB528KR+I8AdJVoQ0ISDdrQKt+lmPxtcC4zslzD0G6I2LjH5kElMl9Y5cuXUxy76oESCItAthN3QYI0vOKC3HM0xfDB0/jyW5FpSBdD14sexEQVhUgTKRBtMNXtQEB6QLShSXdrNuADOlDERufZJKJowLSBZyaGk7F/aU2aGhJJ7kLeaQgSH9B3iIg/eUTMl+YcCkg8lUQKY5VbPsQkG7WgGZsVRXb1c3STpr05OwidOjsCHXCQ5PIXQjSO3fuLCzpxQLWBSybvg3QxFHSpDvpNekM6OxSUe9GjnXpht5eKhYyBMSJ8hVt4O3bgIB0AenCkm7GbUD27kIuGNWJ900G6Z06dRKQLiBdtIEq0QYKcfKUD4YOkSaOlkA6+3kW3l0EML49MIqyq/yyE5BuxoBW3azGIr8vfikp8e7S0XTeXYQl3fTWU2HBFnXwvA0Uwv2ULxxLQTot9PM6P82VDyAC+kSZizbw6jYgIF1AurCkm3UbkLy7dOg4xGQuGAWkC0B8DoiiLExdFkW8mJGxJV14dREw+GoYFOVTNctHQLpZA9qLllVhba5eZVKiSSe5i4n8pAtIF2BqajAV95faoOwn/bjeT3qxSj9xlCePVk0IEXAo6kW0gWvh8XIAACAASURBVJe3AQHpAtKFJd2M2wBp0pNzitCWJ46axk+6gHQB6QKSq0YbIO8uBfqJo/JiRs9dML4cBAQkibIRbaBqtgEB6WYMaMJqXr2s5mXVtwzp7TsNgdpEixkJSK8agCZAWdQDtQHy7nLcwxfDhkyXVhzV0IqjQu4iILRqQqiol1fXi4B0AenCkm7GbUD27tK+I8ldkkzm3UUsZiQAUQwSqkYbKHHBqJ84WiAgXfhEF77fzbYNCEg3Y0Ary7Iq9lUv67rs3YUs6RrhJ124AKwSLgCrBqxWx0GDsSa9SKVGYcmKo6+22AmLpigf0QaqXhsQkC4gXVjSzboNyN5dyAWj8JNeHcFM5FkMCuQ2YLji6IhB0yBPHBVyl6oHXwKIRZ28SRsQkG7WgFa9rMbiK0FZ9V3Ag6yOnRwRG//AJJZk0qSLxYwEKMqgKH5N1xYI0vOKC3HM0xfDB09DsVLy7iIgXQDhmwChOKfqtRMB6QLShSXdrNuAIaQ/An3urmxIEhNHK7/MK7uOxf3Mo44NLenk3UWGdF51VOiSzVaXLOC56sFzZdWJgHSzBrSyLKtiX3WyuD/3kz7UpN5dxMRR84A4AduWX08lE0cHT2PvLgzoSuHdpbKgStyn+gJ1RdS9gHQB6cKSbsZtoMS7S+dhAtJN8BVBQK/lQ6/51XEhTp4qY8VRpYCnioAoEadoVxXZBgSkmzGgVSeLschr2V9IZO8uHTrSxFHTLWYkLOkCVs0PZi21zgrhfsoXjnoXjCWWdAHpQu4iJE9m1wYEpAtIF5Z0s24DsneXIdDEC0gXoGip4Cny9aZtu6i4EO4ePnAyhnQBaGYHaBVpoRVxm8cXAAHpZg1oZVtXhdW5+pSLrEl34MWMTAfpnTt3rvQJq28KLeI8AbjVpQ0Y+0kXLhjNA8QEMIt6elkbEJAuIF1Y0s24DZAmPTmnCG07OZlUky5cMAoQri4gXJXzSd5dCooLccLDB+TdhRYzIveLwgWjgMCXQaDYX7XbhoB0MwY0YTGvPhbzl9W1DOntOzmaFNKFJV1AelWG1+qUNvLuctzDF056SC/QCEgXIFq1QVTUz8vrR0C6gHRhSTfjNiB7d3HoLCC9OoGYyKsYFL2sDZS4YNRr0i0V0otUSlAQgCfKwJLbQDlAeiG0Wcahoi2clX2/is7Py+KX8/my45W1v6qkQ87vm6bnv55H58v3MJPf7AKkZBehQ+ehJvXuIizpAhpfBo1if+W1DWNNOsldCi1Q7kJwXqCWgqWCOuWrUP0igJsqv3J66NcwDfK2/FtewCzfQ46XykLeV173MId43gnS0wjOdXlIzcqDNjsfaVlSSNUVIFVXUcBTiLQc8miRx/em+5sdWL0UBAtBZactCXIeDfdJ/7nsXxIPQRuF8igXKT2UjmcG6SqAdH8Zgiuqrl/MQzrlS5fHbY3TVmqA+Pz89JxibifULqVB5PNjpctFasMUZ0aOnA85Xy+7pirtl1ccHWZS7y4C0isPxAT0irJ+WRsgTXoeyV08fTBi0PMVRy1Ck65U6xdnUqIgVoU8ZTQKNRppHx97EWirEoS9CWCWAKkyBk81KjzRqFGgUnEoilGBQr5KhUKlqkK+IMj3Ny63In16cmJVnK4CtRqFyhgUqKR0PtWoOV35qhjQucbXv812nkbN+aW8UpDvXV7xv02aTHHNW0J6IUPSY202Vq5eh8UrVmPTth1Yvvo3HDhyEiERKqTqCI6MYUaGH+k3TVcEw/Di+aWvJzBMyyrAjcA7cJ48DeOcp0AZe4+BMU1XXMb9yrqe4pDCm93vVee/W35K378QsQ/S8PfBExj3/XSMc56KWS4LsXCZK+bM/xnjnGdixtxFSM8ikM/j8k3JLgQFgtDneZL2SftL57/0/YpKrqFrH6c9LbVN+1J0BTh19homTZ+Dsc6TMHmGC+YvccVslyXYsv1PxN5L1g/MJGg3rssX0mdQ35QWw8EEX/tCPp4PNuTjAbej8f2UWRjvPAWBd2OQnl1YEh5pn+jzkI/N2/9Ev4GO3Fa0Oho8Fr7Q1ih991Kzseq3TRjr/APWbd7K56TmFIJCWnZRqZCeVQzDkJZdjFcFGlDIgeJKzSnmQNdQPMbXGtfPm23LkO6IuPhHJvGwEhcXBwHpAhxfBo5if+W1DRnSj3n6YvhgC4J0pRrPVGpcP+uBGT98B+cB32DV3BlYPnMK9m/bjL3r1kIXGV7K0sqTZmnirD6UJ2BJMKsfNCjVKKZQhvSGznsSHqY/9jwtlKayzqevA8l3gnDA7XdMHzkCP4wajvmTnbFq5nQsmDEZk0Y7YcnkSShWa156z7LiLWufXC7yL+WBypAA3Dh9fgcO4CfncXz/GWNG4Nyfu5AUEoSzf+3G7FGjMGXkcMydOBbXDx5AoSqK68GwjIzjKzs9kqWcrtPdvQu3xYswfswwrJw5A5sWL+Z7/+G6vMxyKys+S9n3lpBOUJaHpSt+wfCRYxGhioMq4R5u+N/Gp72+ho//HWiz9ODGlk4ZFgkoaL8+yND2UmguDaDydY+1WWjj0AF2dRsgJDQCDGElkE7XyPfTX19yH4N7Z1FapOPPz5euK4FNOZ363+fnydcZ5UeGTP39jOM3BOkXrbsFSNHlIfbeY7zfojXsatfHytW/IkqdgNAIFQ4f90SXbp8gIysfqbpnSM3KhTa7QAoG6aTylXTKErxRmkvyI5eD/FtyXT5cFq5ASuaz59CtK4I2uxiJD9MwdOQY2NWph0GOwxEWqcaFK77o+VlvfPhpL5w6feH5NXL+5XI1Tp98X4q7pI4MyrwkPfq08wCk9PEkbTY++/Ir2NVphItXfZGRXcAhJeMpflrkCh1Dex6GfzceNnb1ceDYv9xWGeZlyJbhm2A8Kw9/7TvA5T18zHcSPBOg5xQgjX+fDwIysophGNJyisBBhnX9tgzmGdmFkAPHJZ+XLcVTnpDeoaPkJ50+d1c2FAlIr/wyr+w6FvczjzqWvbuQJX34kOkMcpIVPdp84YYAXa3BllUr0dahBaaNdkL46dNI8vNDoo8vDm3aiGbN6iMjLAyFZMklANaDMwHnc+ikMtCXA0O1wbahhMMAumXQlOOTwI8m4spA+fxeMhRK1yg5DfnRMVgwbyoK9eBbOj1lW/6fKaOQeDsYDo2boEFtO2xYugSJ3r6I9PXBkR1b8VnnDijQxKEghqzZqucDE4N0c1qMtznvz/NfUi5KqYyojBfMnorCMgY1WaFhmDZ6JOzsauDjrp2RFhbKlnRt2F306dED9e1qwnnkcKSHhUmAzuXzvGxKQXpJuvTlr9SXZYm0R428aBU89uxB7Xo18U3Pnvhn02bY1amJiU6ObF2X81cqXrkO5fjplwZOytL1LNeTufy+NaSnZD6BfavW+KpPHyRl5CBFl4vHGTnYuvsfXPTxQ6out0SWQEBK0gSCUMmqWYAM3XOIp3PTswtAEgU6T5LKFLKEJiOHrKC5yGBraD5bTTNzitGifXsobKwRFBoJrS6XLaUsbZDlDfSbTUBLcRchne8nQ3q+lDYGMQJd2eovWVu1ukKkU8gmC7V0T/7PEhIpXQR3lGcaONAxOX2SFEO6juKlcyhPUjx0LkmDCLBflGEQyKVn56NJsxZQKKyx/nc3ZGQ9QWi4Go+Sdfhp0Upk6PKQrnuGDIqDBxokf6F85uktygSX+kBQSGCcJeUnLbNAypeO0ktppPQU4I89+9GwWXOk6rI5fRLU679M6HIxZsJEKKysGdLTdE+QpNVh777DUNSohTbtuyAsOk4P6lJdpeqePi9fLkO53KXyJStyaubzQQRtZ5A8RYZ0PcxzGbGMiiQp1C7ykJGdj89694HCuhbOXPJCelYe0nS5WLpiFXr0/AxZOc+Qnv0Ut0LuYP8Rd7b2U5mmU16pHLIInKV8U/x07NiJU1zeQxydkEkgT6Cfk8flmJFTxNdm0nV0TFeEjOwiZOpBnuIgUNdmS8Cflp2LjOw8ZGYV8Dl0XibFQeVAEE91klWEzGypfKnNszRHv208eHndtuTdpRAOnYaY1LuLcMFoHhAnYNvy68l44mjJiqNlWHqrPKjoJS6n/tmLhk3ro22zpkjw9kZhtJKtyYVKNXID72DSsCFIjwhFrlKJPLUKuWoVnmlU/J+1zOoYFKkj2RVlvjKa5SP5GiXLNdhFpUoJ2n6mUoJkFnkkKdGDdT5JOdSxyNPEcrz5cSo+l69XSyCaG6vmfXnqGL4nAXD+/0tClsyais8+7orcBLpejVyNBNZ8XCNpzgnqDeuhUKNCTlwsWjdsCGuFAjtWuyI/KgoR3peQExqGRTOnIi82ETlqNZ7RffUDE0ovpTtXE8N5zyFQjpFkMTQvgcohX6NCLucxFk/iNZJshspQE4vfN/2C996vD84vS2powKNPmzIW8753hsJagZ7duqIwVoPiWDUK4uLR9+OPeP+sCROQr9LwoIjioDqgMpAGTVJe5e2CGCWoHoo0Kgmi6VdDAw61VE6xCbji7s7x9u7WGUd37YTCRoGRg/vrvyBIXxKexWuQG0t1HsP5ozKmcihUxXKe6D4ky+F8qFUoNgxy3qr471tDOoHYe/b2sKtTG0NHj4fXjQCk5eSyJTg69j6D81XfAPwwYzYmTZuBdb9vweOMbFy7HogZcxbg2MnTmDt/ASbNmIljHqcxbY4LBgx1gtuu3ZKWOKsAD7U6LFnhilW/bsCwkRPwr+dFpBPg5BSjdUcHKGpY4/AJd4yaMBEDhg7FBR9fBlZf/1BMmTUXP8yYiwhVLH5ctARDR4xC/L0khslL3jcxcfIMuK7dgmlzXaCMvw/Kz7otbvh+6jSs3bgJ23f/iYGOQzB51kw8TM1EOluwc7H7n8OYMvdHLFi+Git+WYfHKVmIS0zG/EUrMWXGPHieu4LgUBWmzfmR7x9wN4KlKfsOn8CseQuwzPVXTHdZIIE6Q/ZzqzIBHEHoe/aGkP4MW7b+yXDu7nEBU2fMw6SpM/Dr+t+RlP4U/rcjMGXmj/j3zGUsWLoKm7buwuSZ8/jLBsH5tetBmDxjFqZOn47zFy/ju3ETMNhxKK54+zLsr9u8ne9nXcuOy2LvgeN6yztBJAFlHsY6OzPEkiU9Q0fW9jwkPkpD7boNobCqyTInGkglPEzBvAVLsXn7bkyfOx/xD1IZTqV2MJfr+oKXF4aPHYv+jkNw3NMTvgEBGDFuHAY4OuHU2QuIUiVi3vzFmDx9Dq5ev4UbQbcxZfYc/DBjFiLViVw+XxCkW9ni9MVr3M7m/bQcDZq8j/oNG2Pm7LnYunsPps2di3GTJsPnZjCDvNvOv/H99BlYuGwF/vjrHwxwHAnnH2ZAqU6UIN3KBo5DhzGkE5A/0mZg8cpfsGHLTkyZ4YIoZSIf8zh7FVNmzeM0bdmxE943AzFlzkL8e47S8hSBt8Mx98fFWPPbFrj+sp73Udv5c99hTJk5G4uXL0dodDTGTJwElyWuSH8iQfrbgjp/NcnJRzsB6ZX+BUEAr+UDr3nWcSFOnvLBUOMVR5WlYdAQDKvsfyVBlgq9Pv4QihoKTB837jmkkeRDL/u46+mBJzHhrFv+e9NGuDiPxUqX2diwZCGyIiOQdDcEq+bNwqyJY3F01x9YNmsGnL7pi98WLWKYJMu4ThmFX1cswprF8zHWsT/273Bj4Iz18cbcKT9guvM43Lx8HhtWLseob75BpNdVBtpYXx8snOaMzcsX8z0yo6PxVBWFn35wRt0GtfB+4/pYOskZt44dh04ZA7clC7HTdTl+nPgdwr0uIS/WqF40KjyN16BFwwawslZg1+pVyI+JwTbXn1Eco8KZnbvgMnEipk0cj80rliErJgph585i0URnXDhyCMtnT8X2X10xe9J43AsKZGj1P3kccydOwEznibh87AicHQdh2IBv4Odxist3x6IlaNKsPmraWnHZee76g8GXyoXbhlKN+T/8wND8WfeuUrlrVCiIjZMg3UqB2RMnIlcZi+DLF7F2wY9YM98Fowd8A499f6FYGQXfA39jivNYTHMeiwvuhzF6yEAMG9wf/pfOIz9OiSKNBl6nTmCC4yDMGTceaxcthsJKgV7duuDon7sY0kcNGohiGgjEapAeFYkV8+dh+5qVmDdxDDS3bnBeY85dxOxJE/GD83cIv+GLZS7zMGbAt3gQ5C9NxJVBvYrDudwn3xLSCSwL8LPraihsaqCmXV20bNMOEydNRViMGim6p0jLLsT9lCw4jp7AMLdkuStSdU/wMFUH50kzcf+xFmPGT0Ct+vUxmhrXVW80bW6P9+ybM+iTNXL67B/Rp19/qBIeoEPXj9CqfTc8SM6C7kkx2nQgS7oNfl65Cv8cOgab2rb4ou/XbClN1j5Bhy5dUat+I7j8tABDR4xE3YZNEKNJREhoDBw6d8WPC3+GMu4xvu4/EF/264fH2nTsP3IIdnXqok2HDjh78RJGfDcadvXqYM++/cjUPcX+w+54v3lrttCGRWtg36o9p5HkJwTodeo1we9u25GcnodPe30Fu3qSJEMZ/wjNWrfBpq1/IFypgePIMVwOkiX8OaST1ZQgvUkzeyisbLB4mSsOHP4X/f7nyJBO1vRxzpNRq249zHaZD21mNpJSszBm/GQMHT4Og4eOQVziI3w34Xs4DhvNA5bHKTo0b9MSdvVr49fffsOevf+gZi079BswCJlZubgZcAcK65pQ1KwFX/9ghKsT9VKU55D+3USCdCsMcRrJ6UsjK3PWM7Tv0o2v7fu/QcjIeopho8ZjxJjxiL/3CIOHjsS4iVPZokzpbtaiLWrVqYu1GzfipOcZ2Na1RbtO7bF1504cPnESNWrb4MNPP0FyWg5GfTcOdRs0xL5DR5GclokuPbrBrn59BNwJR2Z2Pj7v/TUUVrVw5sI1lv4cOnGG22HLtu3gHxiEGM09DBrqxHKog0f/RWZ2Hq54X4ddvfpo3KwZ/j19BvsPHkPtuo0xaIgTjpxwh8LGCo7DhiNTVwyC9KmzZoLypYq7j8nT56Lv/xy5bd17nImR4ybCrn5DTJ89Dxe9bmKj227cS8pEtDoB3Xr0xG+b3KCMu4+W7TvCbdefyMgpgM+NANRp2BDtO3fGgmUr0LHbh/jym4FIf1JYAuo0SHud5fyF4+TdJScPDp0G4nZYNNIzdcjIyKi0kJ6ejjt37ghNuglkRuYJkALsK77eCuF+yheOlgDpKiXu+/qitm1NhvRtv6wBraLKcE5WbA39V6EgMhyFyggc2LkN79s3gcfO7UjwuYFW9o0wf/r3yFIp4TLle9SuVwtD+34N3xPu+KBdWzRpWBdR166yfMT1Jxd82K0jYgP98O1Xn6GNfSMkXPfFE2UMBn7bF/Xq2WLa2NGYOmo4mtawhr/7SSTfuYPPe3aF69w5iAvyxwed22P9z8vxNCYax7ZuYbDs0qEdbp87jceBIVgxZyb6ftgNDwMD8fPMqej1cTdoVZGSRVsPjQTGT2PjYd+gPkP6Lwvm49A2Nwzr9yWKVLHICQ3HxMGOqGdXEz/NnYUcjRIZYRGYNNwJg4d8g+8G9UNSQBBGOQ3GaKeByFMqkRoRDodm76OunS22LnfFPxs2wM7OCiP+14et77c9T6OWQoH6tWoi5OIZ3Lt5Q7LQl0B6LOZPnsSQ3qljO1z3PMnB9/Qp9OzkwDA929kZjwJD0KFrWyyfMwcJQcHo2rY12tq/h8dB16ENCUTdurVgV9cOf6/9FdtWuMLWrgbGjRyGvDgVVL7eaN+hOYb3+Rqqa9exxmU+rBQK9O7RFUf+/JPvPWbQAK773Lg4zHAeh2+/+hIpfv6YO2YUBvTpzWXxNCwS3bt3gl29Wvhp6lQ4DxmEVjWtEevtxTKlEmt6dYB0spSu/30rW9QVCgXsatdFtw8/xvWA20jNIjlHAf495wUra1t06vIBktN08LoRhKMnTiM9+5lkobWxwcat25GSrkM7h44Mp8F3I1iHXadeI0yaNJmBkCyajsMnIDn9GVvSW7VryxIM3+t+UGruQ1FTgXpNGyJDV4TMrCK0dWgLhbUNtu36E+HRGlz1vgVt5lO4/LQMVjVtsXPP39Cm52P8986wrlUT7v964KSHJxSKGiBL7ePUdCxevhIK6xpYvGwldLon+PTzXrCuYYuQsEjosvPQqo0D6jVowtb66bNdYGVdC+s3bkFGdjE+792b03f+kjcC70bxgKJNh47YsedveN/yxyOtrkzJS2ZOARq/b89p/2HaLLbK9vz0K73MJReXva5DUdMGzdu05TR6+d5iqYdd3YaYMccFD5PTMMvFBba16yE8OhaZWWSZb8YQGhByG6ER0WwVt2/VFhlZz/DgcRoUNrawtq2N5IxsrjeWZOiBkazmMqQ7DpMhnWQteej6QU9OZ4+en8Dr+g3UsquPxUuX4/7jFDj/MB12dRsj4X4qp71R0+ZQWNXA7bAI0MDBrr4drGytERkTi7jEx1DYKlC7QV2kpD7BmLHjYWVTE3/vOwjdkzx06NyF70NWasrP572+Ygv+2YskdymEr18YFFZWcOjcCem6HKTr8jFkmBMPLP45cAyZ2bkIvE3nWKNFm7Z4lJKBpOQM2Nu3gp1dbaxZu44fMoOHOjGkh0XGonbDuvhugjMeJKViyfLVsLGtD5q0StKiG4HBPDBt0tQeS1es5q8KNLhau+F32NS0g7vnOTxOy2RI//jL3sjIyUPw3UhY2diiZq06CLwbDr+QcPjdiWDdu2xNfytIp68x2bno0LkfevcZjAGDhmDQoEGVEgYOHIgBAwagT58++PTTT4UlW4C6aANVoA0UFRfC3cMHTsaQbiZQIlsQpd9ohHl6wNZKwZC+Z+MmvYTDSLpA0gl1JD7u0ZXPU/tcRWFMHNq0fB9NGtRCgl8AFk6fzseWz52NnGg1/vfJpwyB1w4dRtLtu7BvWB/9+/RGUYwGh7ZsxIivvkRmUAgK4tQY8u23qGGjwNIZ0/Hglj8CjrsjPzQSuzf9BpsaChxwc0NKdBQ+/aArurVqizyNEn7uxxmyP+raFdnqKDwIDIF9w7oYMrAPkiIj4ea6AnY1Fbh28miJLIXyTJBOcpcW9evxe2nmhLH4cdJE9P24BwpUsQzqV48cRU2FAl0d2kEXHY1bx09i5fwfYdfADrNmfo8UZRRmTnZGndpWeHzzFnLi1GjdqAFsFAqEX7mGyCvXQMzWsaU9nsbFISUsDHUUCjS2s0W2Mhr59AVDBnRqN2RJnyzJXdq1b4V/9+zAuZ0UduHD9m14MDJrkjMSrt9Ci0b1sWDUeGSp4tC1XTvpnpc8kaeKgs3/857C2goP/G4i+CTxliSfIUjfsPAnrp/VLi7Ii4nH5YMH+drePXrg8O7dekjvj2KaA+nri4Z2tpj03XdIiwjHIpfZqFXDBpFXLqFIGYuuXcmIq4DbypV4cOMmbh8/gbzIyOokd5Es6ZHq+7ifnIbr/iH4ackK2NVtBIWNHcaM/x5prCEvYEnGh598Dusadjh24iTWbtiM+0npSM/OlSDd2ga7/t4PXc4zdOjUmcHKL+gOjp304P8TJjgzpJO8Qhn3qETu0rwtQbg17oRFI/F+KkN67QZ2SNMVsHa4VYd2DHbX/YKRpnuK1PQnrIP/8qv+DMz7Dh5hLfOk6ZMZYFesWo1/PU/rLcODGQZXrPqVwZKs7o9S0lCrXj222MbEJ0KXk4/2HbrwoOL0pUsMyASWGwjSs4rRqw/ppq1x9rI3yAtO/8FOsKpph/feb46ps+cxEGtJn24keSENswzpa9ZtRGzCQ0yd4cLpIT36o5RM9O77NaxsbbH/0FGsXrsef+ymT0HWGOg4FAePnoDbH7vw88pfWDpCwEqyJPrqEKlWI0oTyx2fvliQvpys3BKk2yEl8ynSnxSV0kgbQzpZsknHTWnpwPm3xtBhw7Fj1588GBszZgKOup/CJrcdWLZyDUuB0nW5aPRecy5bVVwi0jLzYFfPjjsRfVF58DgLVrY1YFu3Fh4lZ2H0uPFcznv3H0T2kzx06tKV6zKIID07D5/36s3bZy9eZX35jYAIhvQOXbtC94TSVgBHI0inawnS23bozIMTAvdOXXvwgGXajFlcJrIm/dTp89wmevftiyMnPOD2x59YunwtQiPjGdJTMrPww7TpXL9Ow0czJKfl5GP0BGdO98+uq3D0Xw+s+m0Dfln/O9KynuJ2WBQPLOybt4ZW94Q1+ykkHaJ5CO+gS5c06QXo0HkIPM/74G5oBEJDQyst3L17FxSio6MFoFUBQKt4K62whFflMjb2k05wxZprtX7CoLmBujIaj2/eYCsvGeLWLFrAGmPW2RNEytIFdQyyI+7C1pYgUIF7ftdRpNKgg0MLWFsr4HXcHQtmzGAIXLtwAYrUCRjYqxdD4vl/9sHvlCdDb78vv0CBUoXM8Dt46H8LhQSrsSo49fsWVjUUOLRtGwqUGp7YWKyMxY96nfbimdPx7+6d2LRkAdbPd0GeKhIBJ09w/B917opnmhjc8jgJGysFPv2wK9x37cD+jRuw+sc5iDx/7gVIfxKnRov6dWFtpcDWlT/jsZ8/Fo77jrXxpI9PCw9H3w+7w9ZagaN7dmD9ksXYuW4t533IkH7w2Psndv66Bmt+cuEJtuS+sI0e0hMDAhB73ZffeWTlzk6MR3JkOGoTpNe2ZV0+SYxKDZZkSLdR4LMPuiMrLBRZoXeRERqGPh99wPclS/qTSCXCzl7AjjW/YvU8F7Rr3Yp19XfOenCZWFtbM6TrIu4i9NxZTkOPjp3Zkj7BcSBz3LZVrshXxsL35DG+9svu3XFo1y4+d/jAb0Hlfvqvv2CrUGBAn69xYu9u7PhtFdbPmY1Eb2/+KvJBl46w+v+0eh89DNL4kzb9eVvRD/DMpC+8tdyFJoGu+s2N5Q80cTPhQSo8Tl9GTbuG6NzjU7a0EizRBMWde/axPOHLr/th7fotDN2kzR3XFQAAGo5JREFUXx/n/D3DlgTpeehIFlOFFfyCbsPd4ywUChu0adsBKbps/eRQ8uRBkpBiNG/noIf0KCTeT4aVjTVqN6jDAClp1jsxlJEFk4CSLOw0efDrbx35ngcOHWN99aRpPzCQrVm3Hu6engyS/foPYRh0Xb0OCkVN/LjgZ6Rm6GDXsCHfU5V4DxlZuWjTriOn8bLvdcyc68Lxrt/4O6exV59+fC5BelJ6Du6EKeHy42LUqGEHu3oN4XHmEl4H6Rs2b4UuJw9nLngzpJMV+fBxD/xz6BDLU2jw47Z9J/YfOcL3/vqb/nj4OJWlRIkPtEhNe8bA+n7zVlDY1ESkOhbRDOnWeK+ZPU8UJfkRQToNIEi2I1t1ZY00QTpPHFWQHGQklwuBcuK9ZNjZ1eMvD/sPHuEvE/TFZJjTKLakJz5MQvy9x9BmPOXyb9y0BZetOl6C9Fp1a3PHvv84HY+ScmBdqxZq1rbjQcN3EybyoEKG9I6dJUgPDAljq3hpSM8HQ7q1NTp27Q7dE2pz+aUgPSMnFwF3Irk9tHOQIF2XXYDO3T5gSJ8zb54BpBfB48x5TutHn37BZXnvYRruPczgASeVR1r2Mxw65s6yobr1G8LrViDSnxSwzEhRowZ+27IJ95KSkfggBXQtXUODSSqfdu07Qfc0HzQh1djjy9tY0iVPPkVo33kYaC5IfmExCgoKKi3k5+eDQmFhoYB0AemiDZi4DcjeXU54+GDY4Gk8Ec+sIV0VjfzICPTr+TED9vBvv2adOHtbYUCXdOnPoiKQHRMBu7q2/F55FHALxeo4tGrdjEH5+ilPLNRD+roFC1Ckikd/PaSf3bcPQR6nGfrea1wf2WGRrDUnOKeJjTRBdFjffrC2UeDUXtJXx7I1l7TRSwjSbRRY9qMLdHfCobtzF2l3Q9jLDEE6yTV6dumKXI0Gfmf/hY21Ah3bNMejUDo3HOkhd5EbEVkK0skN49M4NZrXr8OW+N2/uqJQqYHv/gMM6VkqFU7v2IGDv29iS/MnPbtg3+pfcXirGw9IBvTtjbSwCGTS+zLkLvKiotm3eavGDXiQkBjgj9jrPlwubZo2gS4xFknhYaihUKCBXQ2Wx8gTTtmyz15TyJI+icvg8w+6s5WdJnnShNN+n9AXdQXmEKRHq+HsPBb9Pv8CqoBAdO3akdMYctYTz1RRqGFtxQMPXUQY7pw/w2n4sEMn5MVpMNFpMH9R37R8GfJi1PB2P8bXftm9Kw7v3MHv6BED+qNQFQ/P3Xv460qvz3si/W4YMsPCkHHnDgojozlNH3XpxPUS4umBIh5wSLKoUqBu8ZCekYtWbbsiUhkP0iiT15LU9Gy0bt8FzlNnSZ5DCIx1RYh/kIz3m7dBrToN4RcSysBNUovxEyexdXHHX/tY1tCJNM5WNeEXHAp14kPUrt+IwWbrjj1I1z2Ff1AYImMSGfybt24nQXhoGOJJLmFdE3b16oGstrrsYrTv1JWt4CGhkTxxUNLyFmDtpm28/8+/9iEz+xmGjhwORY2a8L3pz1ppAtY+3w6ETvcMrqvXcnrmL1rKXlaGjhjN14ZFxvC1jZvao6l9S9x7lIyFS1ZyelzX/IqkVCoHku5Y49zlazxhdcfu/Qy2GzdtZfD/5+AJLiNDjTFN9NTlFIJkFFZWNbF+gxt05B1Gm8W/23f8hV179uNeihYtO3ZG/ffsEaWJQ1i0Eja1aoPkQVe9boCg1OPcVcQnJrNLwqb2rbh8wmPUiFaTJd0ajd9vwXMEktKzGPjpCwhZ0lUJSXrvJeTlhKRD+Rg7njTpNhjkOIwhmcrml183ctlQmZBkJiDkLtdVw8bvwfeWH5933OMM7idn8kCu/nsteLKnBOnPUKtOfR7E3H+chkdJWSwTsbWrjaSUTDhPncblvHP3Xjx8mIL33rPnuANCQrncZbnLuUte7OLQLzgaBMc0D0GXkwt13H04Oo1gAN9/4DjXv79e7tK8ZWv+gpCSns3WfXLj+Qc/AGzgOHwEa+jJ2k/7a9rVh+eZSzwgu+J1CzGxj3gQmPgoFa5rfsOCRUs4nUOcRrNrzN/ddrCkpcfHHyHx4SOk6bJx6PBJvqYE0h06Q/eUPL/QYkuG7kJLz00wbBev/K9fcbRjJ0eo4x6CXtJV2dIn0ibqR7SBim0D5N3luIcvnPSQXqAhKYiZWtJZaqHE9ZPH0aReLdjVt4HvyRMMrQSJNIFQGxGGX36czf9HDvwfw7za1xfPlPFo0Lg22pG1ODgci6fPYHBb+9NPyFcm4NsverGl9uz+f5AZRprtpmzJXbl4PnSxaqhu+CD24iX21uLUrw8D879/7dFDeixroz22bWULfBuHVogPCEamRoV/d2xlPTcBIoFv986d8DQuAVG+1/B+kzoscTm0ayfvCzztCfWVKyWQTl5IaFCgS4iFfb26DKnbfl3FcK6LjMITVSx2/LIaxzZuRsrdMLR+vzFaNq7LlvYo76uws1Ww7tvXwxN5ygSc3b8PmXdvIytejeaNJPlMgr8fYq/fRA0rBVo3acz30kZF8tcKu1o2yIpTIeWmX4nlmS3RsRr8NOl71LBW4LMeNOiI5cHSs1jJuwtNcJ01cTzOHzqMenXt8M0XvRAXchutWtpzHoLPnMZTlQo1rRVcJpmREQi6cJaB/UMHB+TFxsFt5XKunwmjh6EgJg5Htm/jNH7RtQuO7NzJA56RAwfwvRNvBaBBTWvY1rHGpYMHoIvXwPv4YaT4BSJXE4+PunbkgUMwQTp5uGF3jGX7pi/1xaAKgvvbW9IzcvF+i44YNfZ77DlwDLeCw/DLui34dqAT7kbHsozjuX/uXCxcthqf9f4GyRm04EweW7+/6N0Pihp2mDrbBVGqeDR8zx42NWpj6669vMKl2469sK3TCA3fa47efftj7cY/kJT2lH1112v0HluH9x44hNPnr0BhXRvWtnVww/8uwqLiULdxM457996DSMkkd4WSREd9LxmOTqMxcJATLl31RYt2Dlju+itS0rPYSwmlp33HblDH3sPIUeNhZW2HAY4jcD8pDQF3wnjCn8uin7Hv8HE0atYcB46eYtnMmUvXGJRJTjHHZSE6dv0ACls7ljs8SEpHx649sW3nX/h13WZ07PIRlPGPX5C6PEjJwrmLPrC1o1nddvisVz+s37SdPYV8N34yGjdtiVNnLvNEwWW/rMf4yTO5nMgCvsJ1HWra1kXrtp3Q33Ek/tp/DKmZubgdpkTt+k3YZeGRk544dtITVjVro3a9Jgi6G8Npdxz5HR93njKbPdOQb2+GSF0+bgaFoUuPj6GwtkPzth2x7vetmPPjInzVdwDWrN+MGPLkk5WHpPRsuPy/ZxcaLLR06IhBTqNw2P00p4E0+bZ1msCqRl0cOe7JCwzZkBXexhZnL3jj/BVfWNe0g02tuvDx9Qelk+qhS7ee/BWjRcv2vL3jz38QqYpH87YdWFa1+jc3llU9SM7BB599weA/22UhbgWHotsHn/A55LaSBiIM6QorvPe+PRYsWYlZcxfC1q4RVq3ZgPmLFsPa1g5dPvgYqviHXKa/btzKX4XsWzig/5AR7KaSyvl2uAojxjrDbftunD53BVY2dqy9Jw88cfGP0e/bwRxX948+wajRE3DL7y5ICrPr7wPcPkn2ExwazS4bXwnfRn7kX36u5MpSQHrFgo8AS1G+5tIGjF0wmj2k04JAkeG4vO9v9P64O7p2bIXVs+fgyObfsWXpQiyfMw2hnp4ojlIh4twFfNi+NVbMmoWDW93QskE9eO7aBV14BMb+7xvUslLg+0ED8PBWEHq0bon6CgU2kDwlSokzO3ajWe1aqNWkNvr0+gRrXOYhJywMSYGB+JicL1gpsPZHFzwLi0AxTVpVq6ELvQPn/v9DbSsFunfpiGGOA3Dd4wRDYfbtu/iqU0c0rG0L1ynTkBwQgL82/Ia6djZo3rQxhvbpjX9Wr8bTqCg9REp6dILqawcP4j2FAnUVCvTt1RPbV63EhsUL8L3jYLSvX5c9xeSqNPjlx3mYN3YMu6TMi4qE69wZfE3L1vYY1a8fPLa6sdQj7NIF2Ne0Yd355b//hsf2nainUMC+li2ivbzwRKXGiD690UihgMuE75B45Zo0KTdWjaI4NaIvXcSgnh/BTqFAu8YNEHzyFHRh4Qj29ESnpo04/3169sC+rW6oXcsGjWrbYcssF46TwH6x80QEuJ9kSY2dtQJ+7ifxz29rOa0ODesj0fc6kgOD8c3HH6B+A1vW08+eOB41aijgYN8EI//3Dae9d6cueBwUjDyVGtuXLkVdGwVaNW+IQf17Y/+WDciPViHxhh8PXupYK7B79Ur+klDVQfxV6Xt7SNcV4NqNEIQpE3H1RjA8L/nikm8AomIf6Ccfks9vyR81aZgve/th++59etlKHh6kZsHLPwQXvPxwPSgUcfdScdnHD5e8/BASFsNuCxOT0nHlegD+OeyO8143EPcwjVepjE1MwlXfQFzyvckDgghVIq54+YOsncq4B1AlJuGyrz+u+Pjhdtjz1U9JGkATWumcs1du4PQVX1z0DWCpDmnob90OxwXvm+wmktLjG3AHF71vcTrvpWYhOSsPQREqeF7yxplrN+AbHIZ72mykZhfgYVoOzl32xaGj/yI8Kg43AsJwydcPgaExbKH2vhkM71tBfG1guBLJPLG2tPX0sfYJ7kbE4Sql3TsAvrdC4H8nGv53ouBL8fkEIDFJxxbY6PgkhISp2cUhQXXiQy3DLlnor/kGSudlF0KZkMTlQGUbpoxHqCoeF31u4YpPAFTxSXy9MvYhzpz3QeCdaCSlPWHrNEE6TZIMjUnAlZuBXA5XfAN4smNAWDR7gUl4lMYDDXklzYTHaTh3xRv/HDkJ71t3cT+FZEr5DL6XvQO4fkIjNYiMTeSyIVeY5GM9XJPA25d9biBKnYhH2ix4XvDCoVNnEaFJhK//bS6Tu5EaxD1MxZUbgVwW/ndj2JNOamYeQqNUDPx0jupeCi7fCuI24Pf/LiqT03PYMwx9QWjZ1gFhUWqc8ryCi1dugmRB/sFhXEbXbgRBTTKh7AIuv4vX/LDv0Clc9PHXl3s+lPEP4et3G3cjYllectnLH5e9b/GAh3zxR2sewN3zAg6d8OR2nJz+FClPChEQoeZyp3YZGfew1GqrLwfw0u2jrPMkTXoROnQayuUsLOkCJs0FJkU6y7+tGmvSydps3nIXyQUgLQVPso2HN28h6NhxeO39Gz779yPU0wPJ/jdQEB2JYqUKtHhQvJcXfA/sx42D+xF17iyyI8KgCwvD7dOeuHHqGMLOn0b67RAEnPaA36kTiLp0HgVRUcgKC8dtT0+ccnPD9f37kRzghzxlJDJDQxB86jhfG3nxHHIjaAXRGBTzxMpoJPnfwrW9e3Bm+3bEXLiIJxEREnTHqBB39SrHdc/LBwVRMZyOkBPu8NyyGX7HDiM9JLDExaEMajlhoYi/doXzGXTiBEI8T0F56QKiL55D2BlPBLgfR2boHfbxnuh3A6prl/U6fSUy7oTg5qGD8Nzqhtsn3aELu8P+x5P8biHwxAkEnnRH4vXriPf1hd8pdwT8647kEH8UaZR4cOsGbuw/gPgrV5EbHimliyRFGhUe3LyO26dPcRkEnDqJeG9vPImIRJyvN/xPnYD/yWO44/EvEryu8T0CTpxAalAgEn194L3/HyTe8sW9m764eeII/NyP4qH/TWi8r+KW+zHc+vcYUoIDkK9SIsHXG+d3bIffkQOIvXYFPgf/QcSlc1wvN93dEXjKA2m3g1GkVrHP+IBjx3Bm62aEuB9FRuhtlnelhdxGsPtJBJw4znVLdSh9STLPr0lvDekEDMmZtIhOIR5n5OGh9imSMkivq1/uPKcQUZp7GOA4Ctd8A7B5+x72m01WdNJiEwgl6aSQrKMFafKRSvFlSovWSBMqC5CcmYuH2hwkZTzTgw0t0EPn0WJCFGgxnwLepn0EhQTAdIwWv+FA0gJKFy8WJC1ok5T5DA/Sn3EaaLElsvonZeZxSMnIgzazgP8/1uWBQjItyJRTzOc/zMjFw/Rc3kdL29N+Sm9yxjM81uZwGqT00QJO0iI6tMhRUuYTPMx4IqWvDHd75KmEruM0c/6k6ykOOdAqoCXaZVpYR78KJi2WQ18MCPSpHOV6SNWXFcWZoi+bpJJykxfoKdbDLg2q5FUypQV4qBzpfApUTxzIZzxLNSQrrgzpVL6UBirXFFqQKLuYV/CkOuF8cf1QWeZK9WO0nZz5jM+jQUcS1XvGU24ncl1SGdIgS0qPVCa08BRNFqZ7pGTkcpuU2pXUDij/1F7Inzx5l2nZtiPLX5LSpHtJZS61u2QuH6meKe1Ujo+1z/CY4tCvPirnhX6ldve87fFiR1lUlvmg+Om+5IpUbjfPy1DaR22nLPD+L/tkSG/b2YkHEALSyx98BEyKMjWXNkD9P4/kLp4+GDFoGsOiJUC6BLAkV9Cw1Zh03BQKoqOkVUTVBM002VHDLhrzIiOQHxGGIqV+ER9aPCcqBvnRUbyITiHJStiLCXkyiebFbmjCaF50DJ6GhSMvIhxFMTEoUEVxyFdGoiAmGoUx0ezzW5q4SveUQn4UpSdCL1uhNOgDreYZFSNBu34lTNp+Fh6G3Ohw0CJDnDd5dUzSfytjOF+UN7pfWYHOoetooR5Klwz49EtpeRoRhrzoCAlONSo+j/KWH6PkibGUV/LgQnkvVEWhWCOVn5RWVYn8RtZwFyhjQGXAZUYLBEWT1V9dqgy5bKKjUUDlGiMtVEQrwOZGRfKAgvblxURxoHgof1QftI/rQK1kLX9uRDjyIsNQoIzkMqJ7U9rlUKikLw/6xayio5EXEYbCmIgSnTytmMqLJVGdczpi9PnTtxF5snEVlLYY1qP8/50g/aUwQcu5Z+cjJEwJuwZNMWjoGOzZR4vkSG4Zpcluz1ec5OXtDT/v03LyhtvsAUXeV4wXzs+StO+kf+djJcvRvzsElU5HEVJLpevF+OVVM0tdJ6dH/uU43sIn9gv3lnyZl9yrVPwvpq3kPIN40nW0iqa0MmlZx2mfMUwab5d9nUHaKF36OuJzjdNZsi3X8avT/uL9S8dPxymkyYOzbPIbTJNBa7GkKv5BGuvupVVI9YMogzIpOz/6NJWk1SCN+vxJ1xnkWx+nnB45Xin95VH/lM8CJOcUoX0nRwHpQo8v5iNU8zYgQ/oxT18MH2xpkG606E8JZJWGVBlu5F9yaViycqbexSHvM3QxyJMjS58nX2/Ov5RPw/TL+S69/9XlJ18vXytv0++r9snHyvotKw46z3C/Yfz8RYj845fUueG5r0v/644bxlX1/lcMpLPv5jzWn5+55IOzl31xP0mn12AXlNunfhl6xK8BML4pbFbKeeUDom9bv/LXBPr1uh6MI+5n4X7qIoLCVPpJmwT3cqiqZfjqdEkDXoL0IQLSqzmgmYu1V6Sz4r5MEKQX6C3p5N1FdsHIlt8yAafqQUnZICbSKcqleraBCoJ0CSxI2kITRUmXSzAkA0V5WhLfFuDEda+GP0soH0NIf5yei8ckR0p/ikdpz0omEkuQbsZloffu0r6j8O4i4K/i4E+UrfmULU0c5cWM9N5dGNCV5m1NFIBaPQFV1LsSFQzpBexmkCQghpCuzSJ5xYuyAEsAQ5GHqgO8hpD+f+3dX1LiQBDH8ZNsLRrYi7hkYb2DJ5PSAm5ALkFFWPaJQ1hAbtBbk0wHljKKVcZMO98Hy7+lceb38EnT0zn9+GvtUdXqkyRjRjBSSafdhQxIUezlcbqQX+ldeZCuRrrr46WazhqQAVMZaBXpzRhSoHfbDtF8feFAk2tkL17PgEd6P5X1ZgvSQBoZiD4D7gxOBtLBqCmMcgP58k10R0gHXq/Di/VhfS7NwBHp7mFGbgQbrQmsARmINwMH3+4yPq+kg1bQSgbMZQCkf8oBykvBxc+B8/dlQKe7MCc9XpQBcvZeM1DPSZ8v5Pfwrj44Ws2JfrlSRwWTdSED4WYApIP0s3GX70MiqO52vfQwdm8wZroLryLwKkrkGdDpLu7gqBvB+FUeZgQiw0Uke9Pu3oB0kA7SLWfAT3e5ToYcHI0caFpN5X3clXU33WUyy2Tkkb5bL/0TF9vFBFhjfcnAx2cApFsGGtfODUY5OekgID1umAFz9l8zUI9gHFaVdJD+8XACo6zpZ2UApANdoGs4A/SkgzPFGe/JwmlPunuYEe0uYPKzMMnfaSdrIN0w0OgH77YfPIT1V6R//0FPOkgFqbFnwPWkP/snjt7eHJ84ysHRdgAFTFnXtjMA0kE6lXTDGVCk9/pDDo7Sk87B0cgzoEi/n2flwdEiX5X96CAdTLaNSX5/OxkD6YaBFkIll2votppfT3cB6QA1cqDGXkV3/79Od5nMF+LaXRTp5VNHmZFtbkY28G0HvpbWFaSDdCrpljPgp7v0kpTpLiCVGxUyIPXBUd+TXgI9XwJUblLIgMEMgHTLQOPaucHQ6S7XI5AO0EA6GZCi2MvjdCGpn+5SIz2nKmmpgsq1kleXAZAOdIGu6Qzsyv1L+qn82WxBGkgjA9FnYC8P0wykG6yaAnNgfp4BkG4aaN32Q9OPHsL6H5G+2mzLnlR6c5lyQgbizUDd7nJeSQettHuQAXMZAOkgnUq64QzodJerJJWnvyAdnMaLU/a++eAo012o0J5XaPncRiZAumGgUckOoZLd7TXU010GzEkHaQA99gzodJeHWTXdhYcZ2YAYYGafmjIA0kE6lXTLGfDTXVxPOu0uIDV2pPL/u2r6XiazTEa+3WW3Xpaz0psQwNcBIhkINwMg3TLQuHZuMHS6SzIE6dEfGOQmBaRXSHeVdJAeLrxAMXtzaQZAOtAFuoYzoD3pbk56Tk86k024UYk6A9ruog8zot0FDF6KQX4uzKyAdMNAoye9237wENZfkf5tMALpADVqoFJFrw6OPrt2l/lCbm+OTxzl4GiYAAPG7MtbGQDpIJ1KuuEMKNKvBlTSQRrtLrFnwFXSHdLv55mMf4L0twDE90FyUwYOq1z+e3taSfnKlH9f5Cs5fTv93iUfN/1d/br+jn8rgBg+c0Q1awAAAABJRU5ErkJggg==;" vertex="1" parent="1">
          <mxGeometry x="868" y="570" width="745" height="246" as="geometry" />
        </mxCell>
        <mxCell id="35Mcef35AUe8jmvGCrlI-28" value="具体模型请查看redis/kafka IO模型" style="shape=note;whiteSpace=wrap;html=1;backgroundOutline=1;darkOpacity=0.05;sketch=1;hachureGap=4;jiggle=2;curveFitting=1;fontFamily=Architects Daughter;fontSource=https%3A%2F%2Ffonts.googleapis.com%2Fcss%3Ffamily%3DArchitects%2BDaughter;fontSize=20;fillColor=#ffe6cc;strokeColor=#d79b00;" vertex="1" parent="1">
          <mxGeometry x="150" y="670" width="186" height="180" as="geometry" />
        </mxCell>
        <mxCell id="35Mcef35AUe8jmvGCrlI-29" style="edgeStyle=orthogonalEdgeStyle;rounded=0;sketch=1;hachureGap=4;jiggle=2;curveFitting=1;orthogonalLoop=1;jettySize=auto;html=1;entryX=0.5;entryY=0;entryDx=0;entryDy=0;entryPerimeter=0;fontFamily=Architects Daughter;fontSource=https%3A%2F%2Ffonts.googleapis.com%2Fcss%3Ffamily%3DArchitects%2BDaughter;fontSize=16;dashed=1;dashPattern=12 12;" edge="1" parent="1" source="35Mcef35AUe8jmvGCrlI-4" target="35Mcef35AUe8jmvGCrlI-28">
          <mxGeometry relative="1" as="geometry" />
        </mxCell>
      </root>
    </mxGraphModel>
  </diagram>
</mxfile>
